M48
;DRILL file {KiCad (5.0.2)-1} date 07.03.2019 11:35:43
;FORMAT={3:3/ absolute / metric / suppress leading zeros}
FMAT,2
METRIC,TZ
T1C0.400
T2C0.600
T3C1.000
T4C1.199
T5C1.520
%
G90
G05
T1
X71500Y-74500
X75000Y-123500
X75500Y-120000
X75634Y-88203
X76500Y-120000
X77000Y-123500
X77500Y-75500
X78619Y-101944
X79750Y-74250
X82300Y-87133
X82549Y-93306
X84500Y-71500
X85500Y-67500
X85500Y-76500
X85978Y-100545
X88500Y-96600
X89100Y-91200
X90500Y-72500
X90500Y-85500
X92500Y-96500
X93100Y-106200
X93500Y-80500
X96750Y-101500
X99750Y-77500
X101604Y-81359
X105000Y-104500
X106250Y-77500
X106400Y-103300
X108000Y-94250
X108000Y-98000
X110787Y-127574
X112500Y-82500
X113500Y-89500
X114500Y-100500
X115000Y-73000
X120250Y-90250
X120500Y-126500
X122500Y-113500
X123000Y-80500
X123000Y-89750
X123698Y-100711
X125500Y-88500
X125621Y-96621
X126500Y-73000
X126500Y-89500
X127250Y-99500
X127500Y-90500
X129785Y-81285
T2
X99000Y-70250
X102000Y-119000
X109250Y-70250
X120750Y-70250
X132250Y-70250
T3
X102000Y-113000
X107000Y-113000
X72150Y-88434
X72150Y-90974
X129500Y-119500
X129500Y-124500
T4
X134500Y-88880
X134500Y-92690
X134500Y-96500
X134500Y-100310
T5
X123920Y-136000
X129000Y-136000
X103500Y-59500
X108580Y-59500
X113660Y-59500
X118740Y-59500
X123820Y-59500
X128900Y-59500
X78500Y-136000
X83580Y-136000
X88660Y-136000
X78000Y-59500
X83080Y-59500
X88160Y-59500
X93240Y-59500
X103500Y-136000
X108580Y-136000
X113660Y-136000
T0
M30
