G04 #@! TF.GenerationSoftware,KiCad,Pcbnew,(5.0.2)-1*
G04 #@! TF.CreationDate,2019-03-05T13:12:27+03:00*
G04 #@! TF.ProjectId,stm8do,73746d38-646f-42e6-9b69-6361645f7063,rev?*
G04 #@! TF.SameCoordinates,Original*
G04 #@! TF.FileFunction,Soldermask,Top*
G04 #@! TF.FilePolarity,Negative*
%FSLAX46Y46*%
G04 Gerber Fmt 4.6, Leading zero omitted, Abs format (unit mm)*
G04 Created by KiCad (PCBNEW (5.0.2)-1) date 05.03.2019 13:12:27*
%MOMM*%
%LPD*%
G01*
G04 APERTURE LIST*
%ADD10C,0.100000*%
G04 APERTURE END LIST*
D10*
X74500000Y-59000000D02*
G75*
G03X74500000Y-59000000I-1500000J0D01*
G01*
X135500000Y-59000000D02*
G75*
G03X135500000Y-59000000I-1500000J0D01*
G01*
X135500000Y-137000000D02*
G75*
G03X135500000Y-137000000I-1500000J0D01*
G01*
X74500000Y-137000000D02*
G75*
G03X74500000Y-137000000I-1500000J0D01*
G01*
X95000000Y-138000000D02*
G75*
G03X95000000Y-138000000I-1500000J0D01*
G01*
X100000000Y-58000000D02*
G75*
G03X100000000Y-58000000I-1500000J0D01*
G01*
X137500000Y-55500000D02*
X69500000Y-55500000D01*
X137500000Y-140500000D02*
X137500000Y-55500000D01*
X69500000Y-140500000D02*
X137500000Y-140500000D01*
X69500000Y-55500000D02*
X69500000Y-140500000D01*
G36*
X108920935Y-134538429D02*
X109017534Y-134557644D01*
X109290517Y-134670717D01*
X109532920Y-134832687D01*
X109536197Y-134834876D01*
X109745124Y-135043803D01*
X109909284Y-135289485D01*
X110022356Y-135562467D01*
X110080000Y-135852261D01*
X110080000Y-136147739D01*
X110022356Y-136437533D01*
X109909284Y-136710515D01*
X109745124Y-136956197D01*
X109536197Y-137165124D01*
X109536194Y-137165126D01*
X109290517Y-137329283D01*
X109017534Y-137442356D01*
X108920935Y-137461571D01*
X108727739Y-137500000D01*
X108432261Y-137500000D01*
X108239065Y-137461571D01*
X108142466Y-137442356D01*
X107869483Y-137329283D01*
X107623806Y-137165126D01*
X107623803Y-137165124D01*
X107414876Y-136956197D01*
X107250716Y-136710515D01*
X107137644Y-136437533D01*
X107080000Y-136147739D01*
X107080000Y-135852261D01*
X107137644Y-135562467D01*
X107250716Y-135289485D01*
X107414876Y-135043803D01*
X107623803Y-134834876D01*
X107627080Y-134832687D01*
X107869483Y-134670717D01*
X108142466Y-134557644D01*
X108239065Y-134538429D01*
X108432261Y-134500000D01*
X108727739Y-134500000D01*
X108920935Y-134538429D01*
X108920935Y-134538429D01*
G37*
G36*
X124260935Y-134538429D02*
X124357534Y-134557644D01*
X124630517Y-134670717D01*
X124872920Y-134832687D01*
X124876197Y-134834876D01*
X125085124Y-135043803D01*
X125249284Y-135289485D01*
X125362356Y-135562467D01*
X125420000Y-135852261D01*
X125420000Y-136147739D01*
X125362356Y-136437533D01*
X125249284Y-136710515D01*
X125085124Y-136956197D01*
X124876197Y-137165124D01*
X124876194Y-137165126D01*
X124630517Y-137329283D01*
X124357534Y-137442356D01*
X124260935Y-137461571D01*
X124067739Y-137500000D01*
X123772261Y-137500000D01*
X123579065Y-137461571D01*
X123482466Y-137442356D01*
X123209483Y-137329283D01*
X122963806Y-137165126D01*
X122963803Y-137165124D01*
X122754876Y-136956197D01*
X122590716Y-136710515D01*
X122477644Y-136437533D01*
X122420000Y-136147739D01*
X122420000Y-135852261D01*
X122477644Y-135562467D01*
X122590716Y-135289485D01*
X122754876Y-135043803D01*
X122963803Y-134834876D01*
X122967080Y-134832687D01*
X123209483Y-134670717D01*
X123482466Y-134557644D01*
X123579065Y-134538429D01*
X123772261Y-134500000D01*
X124067739Y-134500000D01*
X124260935Y-134538429D01*
X124260935Y-134538429D01*
G37*
G36*
X89000935Y-134538429D02*
X89097534Y-134557644D01*
X89370517Y-134670717D01*
X89612920Y-134832687D01*
X89616197Y-134834876D01*
X89825124Y-135043803D01*
X89989284Y-135289485D01*
X90102356Y-135562467D01*
X90160000Y-135852261D01*
X90160000Y-136147739D01*
X90102356Y-136437533D01*
X89989284Y-136710515D01*
X89825124Y-136956197D01*
X89616197Y-137165124D01*
X89616194Y-137165126D01*
X89370517Y-137329283D01*
X89097534Y-137442356D01*
X89000935Y-137461571D01*
X88807739Y-137500000D01*
X88512261Y-137500000D01*
X88319065Y-137461571D01*
X88222466Y-137442356D01*
X87949483Y-137329283D01*
X87703806Y-137165126D01*
X87703803Y-137165124D01*
X87494876Y-136956197D01*
X87330716Y-136710515D01*
X87217644Y-136437533D01*
X87160000Y-136147739D01*
X87160000Y-135852261D01*
X87217644Y-135562467D01*
X87330716Y-135289485D01*
X87494876Y-135043803D01*
X87703803Y-134834876D01*
X87707080Y-134832687D01*
X87949483Y-134670717D01*
X88222466Y-134557644D01*
X88319065Y-134538429D01*
X88512261Y-134500000D01*
X88807739Y-134500000D01*
X89000935Y-134538429D01*
X89000935Y-134538429D01*
G37*
G36*
X83920935Y-134538429D02*
X84017534Y-134557644D01*
X84290517Y-134670717D01*
X84532920Y-134832687D01*
X84536197Y-134834876D01*
X84745124Y-135043803D01*
X84909284Y-135289485D01*
X85022356Y-135562467D01*
X85080000Y-135852261D01*
X85080000Y-136147739D01*
X85022356Y-136437533D01*
X84909284Y-136710515D01*
X84745124Y-136956197D01*
X84536197Y-137165124D01*
X84536194Y-137165126D01*
X84290517Y-137329283D01*
X84017534Y-137442356D01*
X83920935Y-137461571D01*
X83727739Y-137500000D01*
X83432261Y-137500000D01*
X83239065Y-137461571D01*
X83142466Y-137442356D01*
X82869483Y-137329283D01*
X82623806Y-137165126D01*
X82623803Y-137165124D01*
X82414876Y-136956197D01*
X82250716Y-136710515D01*
X82137644Y-136437533D01*
X82080000Y-136147739D01*
X82080000Y-135852261D01*
X82137644Y-135562467D01*
X82250716Y-135289485D01*
X82414876Y-135043803D01*
X82623803Y-134834876D01*
X82627080Y-134832687D01*
X82869483Y-134670717D01*
X83142466Y-134557644D01*
X83239065Y-134538429D01*
X83432261Y-134500000D01*
X83727739Y-134500000D01*
X83920935Y-134538429D01*
X83920935Y-134538429D01*
G37*
G36*
X130500000Y-137500000D02*
X127500000Y-137500000D01*
X127500000Y-134500000D01*
X130500000Y-134500000D01*
X130500000Y-137500000D01*
X130500000Y-137500000D01*
G37*
G36*
X80000000Y-137500000D02*
X77000000Y-137500000D01*
X77000000Y-134500000D01*
X80000000Y-134500000D01*
X80000000Y-137500000D01*
X80000000Y-137500000D01*
G37*
G36*
X105000000Y-137500000D02*
X102000000Y-137500000D01*
X102000000Y-134500000D01*
X105000000Y-134500000D01*
X105000000Y-137500000D01*
X105000000Y-137500000D01*
G37*
G36*
X115971024Y-127192958D02*
X116004555Y-127203130D01*
X116035462Y-127219650D01*
X116062545Y-127241876D01*
X116084771Y-127268959D01*
X116101291Y-127299866D01*
X116111463Y-127333397D01*
X116115502Y-127374406D01*
X116115502Y-128403432D01*
X116111463Y-128444441D01*
X116101291Y-128477972D01*
X116084771Y-128508879D01*
X116062545Y-128535962D01*
X116035462Y-128558188D01*
X116004555Y-128574708D01*
X115971024Y-128584880D01*
X115930015Y-128588919D01*
X115150989Y-128588919D01*
X115109980Y-128584880D01*
X115076449Y-128574708D01*
X115045542Y-128558188D01*
X115018459Y-128535962D01*
X114996233Y-128508879D01*
X114979713Y-128477972D01*
X114969541Y-128444441D01*
X114965502Y-128403432D01*
X114965502Y-127374406D01*
X114969541Y-127333397D01*
X114979713Y-127299866D01*
X114996233Y-127268959D01*
X115018459Y-127241876D01*
X115045542Y-127219650D01*
X115076449Y-127203130D01*
X115109980Y-127192958D01*
X115150989Y-127188919D01*
X115930015Y-127188919D01*
X115971024Y-127192958D01*
X115971024Y-127192958D01*
G37*
G36*
X119001024Y-127192958D02*
X119034555Y-127203130D01*
X119065462Y-127219650D01*
X119092545Y-127241876D01*
X119114771Y-127268959D01*
X119131291Y-127299866D01*
X119141463Y-127333397D01*
X119145502Y-127374406D01*
X119145502Y-128403432D01*
X119141463Y-128444441D01*
X119131291Y-128477972D01*
X119114771Y-128508879D01*
X119092545Y-128535962D01*
X119065462Y-128558188D01*
X119034555Y-128574708D01*
X119001024Y-128584880D01*
X118960015Y-128588919D01*
X118180989Y-128588919D01*
X118139980Y-128584880D01*
X118106449Y-128574708D01*
X118075542Y-128558188D01*
X118048459Y-128535962D01*
X118026233Y-128508879D01*
X118009713Y-128477972D01*
X117999541Y-128444441D01*
X117995502Y-128403432D01*
X117995502Y-127374406D01*
X117999541Y-127333397D01*
X118009713Y-127299866D01*
X118026233Y-127268959D01*
X118048459Y-127241876D01*
X118075542Y-127219650D01*
X118106449Y-127203130D01*
X118139980Y-127192958D01*
X118180989Y-127188919D01*
X118960015Y-127188919D01*
X119001024Y-127192958D01*
X119001024Y-127192958D01*
G37*
G36*
X121051024Y-127192958D02*
X121084555Y-127203130D01*
X121115462Y-127219650D01*
X121142545Y-127241876D01*
X121164771Y-127268959D01*
X121181291Y-127299866D01*
X121191463Y-127333397D01*
X121195502Y-127374406D01*
X121195502Y-128403432D01*
X121191463Y-128444441D01*
X121181291Y-128477972D01*
X121164771Y-128508879D01*
X121142545Y-128535962D01*
X121115462Y-128558188D01*
X121084555Y-128574708D01*
X121051024Y-128584880D01*
X121010015Y-128588919D01*
X120230989Y-128588919D01*
X120189980Y-128584880D01*
X120156449Y-128574708D01*
X120125542Y-128558188D01*
X120098459Y-128535962D01*
X120076233Y-128508879D01*
X120059713Y-128477972D01*
X120049541Y-128444441D01*
X120045502Y-128403432D01*
X120045502Y-127374406D01*
X120049541Y-127333397D01*
X120059713Y-127299866D01*
X120076233Y-127268959D01*
X120098459Y-127241876D01*
X120125542Y-127219650D01*
X120156449Y-127203130D01*
X120189980Y-127192958D01*
X120230989Y-127188919D01*
X121010015Y-127188919D01*
X121051024Y-127192958D01*
X121051024Y-127192958D01*
G37*
G36*
X113921024Y-127192958D02*
X113954555Y-127203130D01*
X113985462Y-127219650D01*
X114012545Y-127241876D01*
X114034771Y-127268959D01*
X114051291Y-127299866D01*
X114061463Y-127333397D01*
X114065502Y-127374406D01*
X114065502Y-128403432D01*
X114061463Y-128444441D01*
X114051291Y-128477972D01*
X114034771Y-128508879D01*
X114012545Y-128535962D01*
X113985462Y-128558188D01*
X113954555Y-128574708D01*
X113921024Y-128584880D01*
X113880015Y-128588919D01*
X113100989Y-128588919D01*
X113059980Y-128584880D01*
X113026449Y-128574708D01*
X112995542Y-128558188D01*
X112968459Y-128535962D01*
X112946233Y-128508879D01*
X112929713Y-128477972D01*
X112919541Y-128444441D01*
X112915502Y-128403432D01*
X112915502Y-127374406D01*
X112919541Y-127333397D01*
X112929713Y-127299866D01*
X112946233Y-127268959D01*
X112968459Y-127241876D01*
X112995542Y-127219650D01*
X113026449Y-127203130D01*
X113059980Y-127192958D01*
X113100989Y-127188919D01*
X113880015Y-127188919D01*
X113921024Y-127192958D01*
X113921024Y-127192958D01*
G37*
G36*
X102900000Y-128350000D02*
X101100000Y-128350000D01*
X101100000Y-125850000D01*
X102900000Y-125850000D01*
X102900000Y-128350000D01*
X102900000Y-128350000D01*
G37*
G36*
X72405522Y-126804039D02*
X72439053Y-126814211D01*
X72469960Y-126830731D01*
X72497043Y-126852957D01*
X72519269Y-126880040D01*
X72535789Y-126910947D01*
X72545961Y-126944478D01*
X72550000Y-126985487D01*
X72550000Y-128014513D01*
X72545961Y-128055522D01*
X72535789Y-128089053D01*
X72519269Y-128119960D01*
X72497043Y-128147043D01*
X72469960Y-128169269D01*
X72439053Y-128185789D01*
X72405522Y-128195961D01*
X72364513Y-128200000D01*
X71585487Y-128200000D01*
X71544478Y-128195961D01*
X71510947Y-128185789D01*
X71480040Y-128169269D01*
X71452957Y-128147043D01*
X71430731Y-128119960D01*
X71414211Y-128089053D01*
X71404039Y-128055522D01*
X71400000Y-128014513D01*
X71400000Y-126985487D01*
X71404039Y-126944478D01*
X71414211Y-126910947D01*
X71430731Y-126880040D01*
X71452957Y-126852957D01*
X71480040Y-126830731D01*
X71510947Y-126814211D01*
X71544478Y-126804039D01*
X71585487Y-126800000D01*
X72364513Y-126800000D01*
X72405522Y-126804039D01*
X72405522Y-126804039D01*
G37*
G36*
X74455522Y-126804039D02*
X74489053Y-126814211D01*
X74519960Y-126830731D01*
X74547043Y-126852957D01*
X74569269Y-126880040D01*
X74585789Y-126910947D01*
X74595961Y-126944478D01*
X74600000Y-126985487D01*
X74600000Y-128014513D01*
X74595961Y-128055522D01*
X74585789Y-128089053D01*
X74569269Y-128119960D01*
X74547043Y-128147043D01*
X74519960Y-128169269D01*
X74489053Y-128185789D01*
X74455522Y-128195961D01*
X74414513Y-128200000D01*
X73635487Y-128200000D01*
X73594478Y-128195961D01*
X73560947Y-128185789D01*
X73530040Y-128169269D01*
X73502957Y-128147043D01*
X73480731Y-128119960D01*
X73464211Y-128089053D01*
X73454039Y-128055522D01*
X73450000Y-128014513D01*
X73450000Y-126985487D01*
X73454039Y-126944478D01*
X73464211Y-126910947D01*
X73480731Y-126880040D01*
X73502957Y-126852957D01*
X73530040Y-126830731D01*
X73560947Y-126814211D01*
X73594478Y-126804039D01*
X73635487Y-126800000D01*
X74414513Y-126800000D01*
X74455522Y-126804039D01*
X74455522Y-126804039D01*
G37*
G36*
X78430522Y-126804039D02*
X78464053Y-126814211D01*
X78494960Y-126830731D01*
X78522043Y-126852957D01*
X78544269Y-126880040D01*
X78560789Y-126910947D01*
X78570961Y-126944478D01*
X78575000Y-126985487D01*
X78575000Y-128014513D01*
X78570961Y-128055522D01*
X78560789Y-128089053D01*
X78544269Y-128119960D01*
X78522043Y-128147043D01*
X78494960Y-128169269D01*
X78464053Y-128185789D01*
X78430522Y-128195961D01*
X78389513Y-128200000D01*
X77610487Y-128200000D01*
X77569478Y-128195961D01*
X77535947Y-128185789D01*
X77505040Y-128169269D01*
X77477957Y-128147043D01*
X77455731Y-128119960D01*
X77439211Y-128089053D01*
X77429039Y-128055522D01*
X77425000Y-128014513D01*
X77425000Y-126985487D01*
X77429039Y-126944478D01*
X77439211Y-126910947D01*
X77455731Y-126880040D01*
X77477957Y-126852957D01*
X77505040Y-126830731D01*
X77535947Y-126814211D01*
X77569478Y-126804039D01*
X77610487Y-126800000D01*
X78389513Y-126800000D01*
X78430522Y-126804039D01*
X78430522Y-126804039D01*
G37*
G36*
X80480522Y-126804039D02*
X80514053Y-126814211D01*
X80544960Y-126830731D01*
X80572043Y-126852957D01*
X80594269Y-126880040D01*
X80610789Y-126910947D01*
X80620961Y-126944478D01*
X80625000Y-126985487D01*
X80625000Y-128014513D01*
X80620961Y-128055522D01*
X80610789Y-128089053D01*
X80594269Y-128119960D01*
X80572043Y-128147043D01*
X80544960Y-128169269D01*
X80514053Y-128185789D01*
X80480522Y-128195961D01*
X80439513Y-128200000D01*
X79660487Y-128200000D01*
X79619478Y-128195961D01*
X79585947Y-128185789D01*
X79555040Y-128169269D01*
X79527957Y-128147043D01*
X79505731Y-128119960D01*
X79489211Y-128089053D01*
X79479039Y-128055522D01*
X79475000Y-128014513D01*
X79475000Y-126985487D01*
X79479039Y-126944478D01*
X79489211Y-126910947D01*
X79505731Y-126880040D01*
X79527957Y-126852957D01*
X79555040Y-126830731D01*
X79585947Y-126814211D01*
X79619478Y-126804039D01*
X79660487Y-126800000D01*
X80439513Y-126800000D01*
X80480522Y-126804039D01*
X80480522Y-126804039D01*
G37*
G36*
X108827704Y-126134318D02*
X108861235Y-126144490D01*
X108892142Y-126161010D01*
X108919225Y-126183236D01*
X108941451Y-126210319D01*
X108957971Y-126241226D01*
X108968143Y-126274757D01*
X108972182Y-126315766D01*
X108972182Y-127094792D01*
X108968143Y-127135801D01*
X108957971Y-127169332D01*
X108941451Y-127200239D01*
X108919225Y-127227322D01*
X108892142Y-127249548D01*
X108861235Y-127266068D01*
X108827704Y-127276240D01*
X108786695Y-127280279D01*
X107757669Y-127280279D01*
X107716660Y-127276240D01*
X107683129Y-127266068D01*
X107652222Y-127249548D01*
X107625139Y-127227322D01*
X107602913Y-127200239D01*
X107586393Y-127169332D01*
X107576221Y-127135801D01*
X107572182Y-127094792D01*
X107572182Y-126315766D01*
X107576221Y-126274757D01*
X107586393Y-126241226D01*
X107602913Y-126210319D01*
X107625139Y-126183236D01*
X107652222Y-126161010D01*
X107683129Y-126144490D01*
X107716660Y-126134318D01*
X107757669Y-126130279D01*
X108786695Y-126130279D01*
X108827704Y-126134318D01*
X108827704Y-126134318D01*
G37*
G36*
X94483549Y-122778370D02*
X94510547Y-122786560D01*
X94535430Y-122799860D01*
X94557240Y-122817760D01*
X94575140Y-122839570D01*
X94588440Y-122864453D01*
X94596630Y-122891451D01*
X94600000Y-122925671D01*
X94600000Y-127074329D01*
X94596630Y-127108549D01*
X94588440Y-127135547D01*
X94575140Y-127160430D01*
X94557240Y-127182240D01*
X94535430Y-127200140D01*
X94510547Y-127213440D01*
X94483549Y-127221630D01*
X94449329Y-127225000D01*
X91550671Y-127225000D01*
X91516451Y-127221630D01*
X91489453Y-127213440D01*
X91464570Y-127200140D01*
X91442760Y-127182240D01*
X91424860Y-127160430D01*
X91411560Y-127135547D01*
X91403370Y-127108549D01*
X91400000Y-127074329D01*
X91400000Y-122925671D01*
X91403370Y-122891451D01*
X91411560Y-122864453D01*
X91424860Y-122839570D01*
X91442760Y-122817760D01*
X91464570Y-122799860D01*
X91489453Y-122786560D01*
X91516451Y-122778370D01*
X91550671Y-122775000D01*
X94449329Y-122775000D01*
X94483549Y-122778370D01*
X94483549Y-122778370D01*
G37*
G36*
X89283549Y-122778370D02*
X89310547Y-122786560D01*
X89335430Y-122799860D01*
X89357240Y-122817760D01*
X89375140Y-122839570D01*
X89388440Y-122864453D01*
X89396630Y-122891451D01*
X89400000Y-122925671D01*
X89400000Y-127074329D01*
X89396630Y-127108549D01*
X89388440Y-127135547D01*
X89375140Y-127160430D01*
X89357240Y-127182240D01*
X89335430Y-127200140D01*
X89310547Y-127213440D01*
X89283549Y-127221630D01*
X89249329Y-127225000D01*
X86350671Y-127225000D01*
X86316451Y-127221630D01*
X86289453Y-127213440D01*
X86264570Y-127200140D01*
X86242760Y-127182240D01*
X86224860Y-127160430D01*
X86211560Y-127135547D01*
X86203370Y-127108549D01*
X86200000Y-127074329D01*
X86200000Y-122925671D01*
X86203370Y-122891451D01*
X86211560Y-122864453D01*
X86224860Y-122839570D01*
X86242760Y-122817760D01*
X86264570Y-122799860D01*
X86289453Y-122786560D01*
X86316451Y-122778370D01*
X86350671Y-122775000D01*
X89249329Y-122775000D01*
X89283549Y-122778370D01*
X89283549Y-122778370D01*
G37*
G36*
X130500000Y-125500000D02*
X128500000Y-125500000D01*
X128500000Y-123500000D01*
X130500000Y-123500000D01*
X130500000Y-125500000D01*
X130500000Y-125500000D01*
G37*
G36*
X108827704Y-124084318D02*
X108861235Y-124094490D01*
X108892142Y-124111010D01*
X108919225Y-124133236D01*
X108941451Y-124160319D01*
X108957971Y-124191226D01*
X108968143Y-124224757D01*
X108972182Y-124265766D01*
X108972182Y-125044792D01*
X108968143Y-125085801D01*
X108957971Y-125119332D01*
X108941451Y-125150239D01*
X108919225Y-125177322D01*
X108892142Y-125199548D01*
X108861235Y-125216068D01*
X108827704Y-125226240D01*
X108786695Y-125230279D01*
X107757669Y-125230279D01*
X107716660Y-125226240D01*
X107683129Y-125216068D01*
X107652222Y-125199548D01*
X107625139Y-125177322D01*
X107602913Y-125150239D01*
X107586393Y-125119332D01*
X107576221Y-125085801D01*
X107572182Y-125044792D01*
X107572182Y-124265766D01*
X107576221Y-124224757D01*
X107586393Y-124191226D01*
X107602913Y-124160319D01*
X107625139Y-124133236D01*
X107652222Y-124111010D01*
X107683129Y-124094490D01*
X107716660Y-124084318D01*
X107757669Y-124080279D01*
X108786695Y-124080279D01*
X108827704Y-124084318D01*
X108827704Y-124084318D01*
G37*
G36*
X118097182Y-125100279D02*
X116547182Y-125100279D01*
X116547182Y-124500279D01*
X118097182Y-124500279D01*
X118097182Y-125100279D01*
X118097182Y-125100279D01*
G37*
G36*
X112697182Y-125100279D02*
X111147182Y-125100279D01*
X111147182Y-124500279D01*
X112697182Y-124500279D01*
X112697182Y-125100279D01*
X112697182Y-125100279D01*
G37*
G36*
X102900000Y-124350000D02*
X101100000Y-124350000D01*
X101100000Y-121850000D01*
X102900000Y-121850000D01*
X102900000Y-124350000D01*
X102900000Y-124350000D01*
G37*
G36*
X78509353Y-122804076D02*
X78543244Y-122814357D01*
X78574472Y-122831048D01*
X78601846Y-122853515D01*
X78624313Y-122880889D01*
X78641004Y-122912117D01*
X78651285Y-122946008D01*
X78655361Y-122987391D01*
X78655361Y-124012609D01*
X78651285Y-124053992D01*
X78641004Y-124087883D01*
X78624313Y-124119111D01*
X78601846Y-124146485D01*
X78574472Y-124168952D01*
X78543244Y-124185643D01*
X78509353Y-124195924D01*
X78467970Y-124200000D01*
X77867752Y-124200000D01*
X77826369Y-124195924D01*
X77792478Y-124185643D01*
X77761250Y-124168952D01*
X77733876Y-124146485D01*
X77711409Y-124119111D01*
X77694718Y-124087883D01*
X77684437Y-124053992D01*
X77680361Y-124012609D01*
X77680361Y-122987391D01*
X77684437Y-122946008D01*
X77694718Y-122912117D01*
X77711409Y-122880889D01*
X77733876Y-122853515D01*
X77761250Y-122831048D01*
X77792478Y-122814357D01*
X77826369Y-122804076D01*
X77867752Y-122800000D01*
X78467970Y-122800000D01*
X78509353Y-122804076D01*
X78509353Y-122804076D01*
G37*
G36*
X74148992Y-122804076D02*
X74182883Y-122814357D01*
X74214111Y-122831048D01*
X74241485Y-122853515D01*
X74263952Y-122880889D01*
X74280643Y-122912117D01*
X74290924Y-122946008D01*
X74295000Y-122987391D01*
X74295000Y-124012609D01*
X74290924Y-124053992D01*
X74280643Y-124087883D01*
X74263952Y-124119111D01*
X74241485Y-124146485D01*
X74214111Y-124168952D01*
X74182883Y-124185643D01*
X74148992Y-124195924D01*
X74107609Y-124200000D01*
X73507391Y-124200000D01*
X73466008Y-124195924D01*
X73432117Y-124185643D01*
X73400889Y-124168952D01*
X73373515Y-124146485D01*
X73351048Y-124119111D01*
X73334357Y-124087883D01*
X73324076Y-124053992D01*
X73320000Y-124012609D01*
X73320000Y-122987391D01*
X73324076Y-122946008D01*
X73334357Y-122912117D01*
X73351048Y-122880889D01*
X73373515Y-122853515D01*
X73400889Y-122831048D01*
X73432117Y-122814357D01*
X73466008Y-122804076D01*
X73507391Y-122800000D01*
X74107609Y-122800000D01*
X74148992Y-122804076D01*
X74148992Y-122804076D01*
G37*
G36*
X72273992Y-122804076D02*
X72307883Y-122814357D01*
X72339111Y-122831048D01*
X72366485Y-122853515D01*
X72388952Y-122880889D01*
X72405643Y-122912117D01*
X72415924Y-122946008D01*
X72420000Y-122987391D01*
X72420000Y-124012609D01*
X72415924Y-124053992D01*
X72405643Y-124087883D01*
X72388952Y-124119111D01*
X72366485Y-124146485D01*
X72339111Y-124168952D01*
X72307883Y-124185643D01*
X72273992Y-124195924D01*
X72232609Y-124200000D01*
X71632391Y-124200000D01*
X71591008Y-124195924D01*
X71557117Y-124185643D01*
X71525889Y-124168952D01*
X71498515Y-124146485D01*
X71476048Y-124119111D01*
X71459357Y-124087883D01*
X71449076Y-124053992D01*
X71445000Y-124012609D01*
X71445000Y-122987391D01*
X71449076Y-122946008D01*
X71459357Y-122912117D01*
X71476048Y-122880889D01*
X71498515Y-122853515D01*
X71525889Y-122831048D01*
X71557117Y-122814357D01*
X71591008Y-122804076D01*
X71632391Y-122800000D01*
X72232609Y-122800000D01*
X72273992Y-122804076D01*
X72273992Y-122804076D01*
G37*
G36*
X80384353Y-122804076D02*
X80418244Y-122814357D01*
X80449472Y-122831048D01*
X80476846Y-122853515D01*
X80499313Y-122880889D01*
X80516004Y-122912117D01*
X80526285Y-122946008D01*
X80530361Y-122987391D01*
X80530361Y-124012609D01*
X80526285Y-124053992D01*
X80516004Y-124087883D01*
X80499313Y-124119111D01*
X80476846Y-124146485D01*
X80449472Y-124168952D01*
X80418244Y-124185643D01*
X80384353Y-124195924D01*
X80342970Y-124200000D01*
X79742752Y-124200000D01*
X79701369Y-124195924D01*
X79667478Y-124185643D01*
X79636250Y-124168952D01*
X79608876Y-124146485D01*
X79586409Y-124119111D01*
X79569718Y-124087883D01*
X79559437Y-124053992D01*
X79555361Y-124012609D01*
X79555361Y-122987391D01*
X79559437Y-122946008D01*
X79569718Y-122912117D01*
X79586409Y-122880889D01*
X79608876Y-122853515D01*
X79636250Y-122831048D01*
X79667478Y-122814357D01*
X79701369Y-122804076D01*
X79742752Y-122800000D01*
X80342970Y-122800000D01*
X80384353Y-122804076D01*
X80384353Y-122804076D01*
G37*
G36*
X112697182Y-123830279D02*
X111147182Y-123830279D01*
X111147182Y-123230279D01*
X112697182Y-123230279D01*
X112697182Y-123830279D01*
X112697182Y-123830279D01*
G37*
G36*
X118097182Y-123830279D02*
X116547182Y-123830279D01*
X116547182Y-123230279D01*
X118097182Y-123230279D01*
X118097182Y-123830279D01*
X118097182Y-123830279D01*
G37*
G36*
X112697182Y-122560279D02*
X111147182Y-122560279D01*
X111147182Y-121960279D01*
X112697182Y-121960279D01*
X112697182Y-122560279D01*
X112697182Y-122560279D01*
G37*
G36*
X118097182Y-122560279D02*
X116547182Y-122560279D01*
X116547182Y-121960279D01*
X118097182Y-121960279D01*
X118097182Y-122560279D01*
X118097182Y-122560279D01*
G37*
G36*
X118097182Y-121290279D02*
X116547182Y-121290279D01*
X116547182Y-120690279D01*
X118097182Y-120690279D01*
X118097182Y-121290279D01*
X118097182Y-121290279D01*
G37*
G36*
X112697182Y-121290279D02*
X111147182Y-121290279D01*
X111147182Y-120690279D01*
X112697182Y-120690279D01*
X112697182Y-121290279D01*
X112697182Y-121290279D01*
G37*
G36*
X72405522Y-119304039D02*
X72439053Y-119314211D01*
X72469960Y-119330731D01*
X72497043Y-119352957D01*
X72519269Y-119380040D01*
X72535789Y-119410947D01*
X72545961Y-119444478D01*
X72550000Y-119485487D01*
X72550000Y-120514513D01*
X72545961Y-120555522D01*
X72535789Y-120589053D01*
X72519269Y-120619960D01*
X72497043Y-120647043D01*
X72469960Y-120669269D01*
X72439053Y-120685789D01*
X72405522Y-120695961D01*
X72364513Y-120700000D01*
X71585487Y-120700000D01*
X71544478Y-120695961D01*
X71510947Y-120685789D01*
X71480040Y-120669269D01*
X71452957Y-120647043D01*
X71430731Y-120619960D01*
X71414211Y-120589053D01*
X71404039Y-120555522D01*
X71400000Y-120514513D01*
X71400000Y-119485487D01*
X71404039Y-119444478D01*
X71414211Y-119410947D01*
X71430731Y-119380040D01*
X71452957Y-119352957D01*
X71480040Y-119330731D01*
X71510947Y-119314211D01*
X71544478Y-119304039D01*
X71585487Y-119300000D01*
X72364513Y-119300000D01*
X72405522Y-119304039D01*
X72405522Y-119304039D01*
G37*
G36*
X74455522Y-119304039D02*
X74489053Y-119314211D01*
X74519960Y-119330731D01*
X74547043Y-119352957D01*
X74569269Y-119380040D01*
X74585789Y-119410947D01*
X74595961Y-119444478D01*
X74600000Y-119485487D01*
X74600000Y-120514513D01*
X74595961Y-120555522D01*
X74585789Y-120589053D01*
X74569269Y-120619960D01*
X74547043Y-120647043D01*
X74519960Y-120669269D01*
X74489053Y-120685789D01*
X74455522Y-120695961D01*
X74414513Y-120700000D01*
X73635487Y-120700000D01*
X73594478Y-120695961D01*
X73560947Y-120685789D01*
X73530040Y-120669269D01*
X73502957Y-120647043D01*
X73480731Y-120619960D01*
X73464211Y-120589053D01*
X73454039Y-120555522D01*
X73450000Y-120514513D01*
X73450000Y-119485487D01*
X73454039Y-119444478D01*
X73464211Y-119410947D01*
X73480731Y-119380040D01*
X73502957Y-119352957D01*
X73530040Y-119330731D01*
X73560947Y-119314211D01*
X73594478Y-119304039D01*
X73635487Y-119300000D01*
X74414513Y-119300000D01*
X74455522Y-119304039D01*
X74455522Y-119304039D01*
G37*
G36*
X78405522Y-119304039D02*
X78439053Y-119314211D01*
X78469960Y-119330731D01*
X78497043Y-119352957D01*
X78519269Y-119380040D01*
X78535789Y-119410947D01*
X78545961Y-119444478D01*
X78550000Y-119485487D01*
X78550000Y-120514513D01*
X78545961Y-120555522D01*
X78535789Y-120589053D01*
X78519269Y-120619960D01*
X78497043Y-120647043D01*
X78469960Y-120669269D01*
X78439053Y-120685789D01*
X78405522Y-120695961D01*
X78364513Y-120700000D01*
X77585487Y-120700000D01*
X77544478Y-120695961D01*
X77510947Y-120685789D01*
X77480040Y-120669269D01*
X77452957Y-120647043D01*
X77430731Y-120619960D01*
X77414211Y-120589053D01*
X77404039Y-120555522D01*
X77400000Y-120514513D01*
X77400000Y-119485487D01*
X77404039Y-119444478D01*
X77414211Y-119410947D01*
X77430731Y-119380040D01*
X77452957Y-119352957D01*
X77480040Y-119330731D01*
X77510947Y-119314211D01*
X77544478Y-119304039D01*
X77585487Y-119300000D01*
X78364513Y-119300000D01*
X78405522Y-119304039D01*
X78405522Y-119304039D01*
G37*
G36*
X80455522Y-119304039D02*
X80489053Y-119314211D01*
X80519960Y-119330731D01*
X80547043Y-119352957D01*
X80569269Y-119380040D01*
X80585789Y-119410947D01*
X80595961Y-119444478D01*
X80600000Y-119485487D01*
X80600000Y-120514513D01*
X80595961Y-120555522D01*
X80585789Y-120589053D01*
X80569269Y-120619960D01*
X80547043Y-120647043D01*
X80519960Y-120669269D01*
X80489053Y-120685789D01*
X80455522Y-120695961D01*
X80414513Y-120700000D01*
X79635487Y-120700000D01*
X79594478Y-120695961D01*
X79560947Y-120685789D01*
X79530040Y-120669269D01*
X79502957Y-120647043D01*
X79480731Y-120619960D01*
X79464211Y-120589053D01*
X79454039Y-120555522D01*
X79450000Y-120514513D01*
X79450000Y-119485487D01*
X79454039Y-119444478D01*
X79464211Y-119410947D01*
X79480731Y-119380040D01*
X79502957Y-119352957D01*
X79530040Y-119330731D01*
X79560947Y-119314211D01*
X79594478Y-119304039D01*
X79635487Y-119300000D01*
X80414513Y-119300000D01*
X80455522Y-119304039D01*
X80455522Y-119304039D01*
G37*
G36*
X129671454Y-118514513D02*
X129791689Y-118538429D01*
X129973678Y-118613811D01*
X130137463Y-118723249D01*
X130276751Y-118862537D01*
X130386189Y-119026322D01*
X130461571Y-119208311D01*
X130500000Y-119401509D01*
X130500000Y-119598491D01*
X130461571Y-119791689D01*
X130386189Y-119973678D01*
X130276751Y-120137463D01*
X130137463Y-120276751D01*
X129973678Y-120386189D01*
X129791689Y-120461571D01*
X129675770Y-120484628D01*
X129598493Y-120500000D01*
X129401507Y-120500000D01*
X129324230Y-120484628D01*
X129208311Y-120461571D01*
X129026322Y-120386189D01*
X128862537Y-120276751D01*
X128723249Y-120137463D01*
X128613811Y-119973678D01*
X128538429Y-119791689D01*
X128500000Y-119598491D01*
X128500000Y-119401509D01*
X128538429Y-119208311D01*
X128613811Y-119026322D01*
X128723249Y-118862537D01*
X128862537Y-118723249D01*
X129026322Y-118613811D01*
X129208311Y-118538429D01*
X129328546Y-118514513D01*
X129401507Y-118500000D01*
X129598493Y-118500000D01*
X129671454Y-118514513D01*
X129671454Y-118514513D01*
G37*
G36*
X96405522Y-117304039D02*
X96439053Y-117314211D01*
X96469960Y-117330731D01*
X96497043Y-117352957D01*
X96519269Y-117380040D01*
X96535789Y-117410947D01*
X96545961Y-117444478D01*
X96550000Y-117485487D01*
X96550000Y-118514513D01*
X96545961Y-118555522D01*
X96535789Y-118589053D01*
X96519269Y-118619960D01*
X96497043Y-118647043D01*
X96469960Y-118669269D01*
X96439053Y-118685789D01*
X96405522Y-118695961D01*
X96364513Y-118700000D01*
X95585487Y-118700000D01*
X95544478Y-118695961D01*
X95510947Y-118685789D01*
X95480040Y-118669269D01*
X95452957Y-118647043D01*
X95430731Y-118619960D01*
X95414211Y-118589053D01*
X95404039Y-118555522D01*
X95400000Y-118514513D01*
X95400000Y-117485487D01*
X95404039Y-117444478D01*
X95414211Y-117410947D01*
X95430731Y-117380040D01*
X95452957Y-117352957D01*
X95480040Y-117330731D01*
X95510947Y-117314211D01*
X95544478Y-117304039D01*
X95585487Y-117300000D01*
X96364513Y-117300000D01*
X96405522Y-117304039D01*
X96405522Y-117304039D01*
G37*
G36*
X98455522Y-117304039D02*
X98489053Y-117314211D01*
X98519960Y-117330731D01*
X98547043Y-117352957D01*
X98569269Y-117380040D01*
X98585789Y-117410947D01*
X98595961Y-117444478D01*
X98600000Y-117485487D01*
X98600000Y-118514513D01*
X98595961Y-118555522D01*
X98585789Y-118589053D01*
X98569269Y-118619960D01*
X98547043Y-118647043D01*
X98519960Y-118669269D01*
X98489053Y-118685789D01*
X98455522Y-118695961D01*
X98414513Y-118700000D01*
X97635487Y-118700000D01*
X97594478Y-118695961D01*
X97560947Y-118685789D01*
X97530040Y-118669269D01*
X97502957Y-118647043D01*
X97480731Y-118619960D01*
X97464211Y-118589053D01*
X97454039Y-118555522D01*
X97450000Y-118514513D01*
X97450000Y-117485487D01*
X97454039Y-117444478D01*
X97464211Y-117410947D01*
X97480731Y-117380040D01*
X97502957Y-117352957D01*
X97530040Y-117330731D01*
X97560947Y-117314211D01*
X97594478Y-117304039D01*
X97635487Y-117300000D01*
X98414513Y-117300000D01*
X98455522Y-117304039D01*
X98455522Y-117304039D01*
G37*
G36*
X117303144Y-117276798D02*
X117336675Y-117286970D01*
X117367582Y-117303490D01*
X117394665Y-117325716D01*
X117416891Y-117352799D01*
X117433411Y-117383706D01*
X117443583Y-117417237D01*
X117447622Y-117458246D01*
X117447622Y-118487272D01*
X117443583Y-118528281D01*
X117433411Y-118561812D01*
X117416891Y-118592719D01*
X117394665Y-118619802D01*
X117367582Y-118642028D01*
X117336675Y-118658548D01*
X117303144Y-118668720D01*
X117262135Y-118672759D01*
X116483109Y-118672759D01*
X116442100Y-118668720D01*
X116408569Y-118658548D01*
X116377662Y-118642028D01*
X116350579Y-118619802D01*
X116328353Y-118592719D01*
X116311833Y-118561812D01*
X116301661Y-118528281D01*
X116297622Y-118487272D01*
X116297622Y-117458246D01*
X116301661Y-117417237D01*
X116311833Y-117383706D01*
X116328353Y-117352799D01*
X116350579Y-117325716D01*
X116377662Y-117303490D01*
X116408569Y-117286970D01*
X116442100Y-117276798D01*
X116483109Y-117272759D01*
X117262135Y-117272759D01*
X117303144Y-117276798D01*
X117303144Y-117276798D01*
G37*
G36*
X115253144Y-117276798D02*
X115286675Y-117286970D01*
X115317582Y-117303490D01*
X115344665Y-117325716D01*
X115366891Y-117352799D01*
X115383411Y-117383706D01*
X115393583Y-117417237D01*
X115397622Y-117458246D01*
X115397622Y-118487272D01*
X115393583Y-118528281D01*
X115383411Y-118561812D01*
X115366891Y-118592719D01*
X115344665Y-118619802D01*
X115317582Y-118642028D01*
X115286675Y-118658548D01*
X115253144Y-118668720D01*
X115212135Y-118672759D01*
X114433109Y-118672759D01*
X114392100Y-118668720D01*
X114358569Y-118658548D01*
X114327662Y-118642028D01*
X114300579Y-118619802D01*
X114278353Y-118592719D01*
X114261833Y-118561812D01*
X114251661Y-118528281D01*
X114247622Y-118487272D01*
X114247622Y-117458246D01*
X114251661Y-117417237D01*
X114261833Y-117383706D01*
X114278353Y-117352799D01*
X114300579Y-117325716D01*
X114327662Y-117303490D01*
X114358569Y-117286970D01*
X114392100Y-117276798D01*
X114433109Y-117272759D01*
X115212135Y-117272759D01*
X115253144Y-117276798D01*
X115253144Y-117276798D01*
G37*
G36*
X107175770Y-112015372D02*
X107291689Y-112038429D01*
X107473678Y-112113811D01*
X107637463Y-112223249D01*
X107776751Y-112362537D01*
X107886189Y-112526322D01*
X107961571Y-112708311D01*
X108000000Y-112901509D01*
X108000000Y-113098491D01*
X107961571Y-113291689D01*
X107886189Y-113473678D01*
X107776751Y-113637463D01*
X107637463Y-113776751D01*
X107473678Y-113886189D01*
X107291689Y-113961571D01*
X107175770Y-113984628D01*
X107098493Y-114000000D01*
X106901507Y-114000000D01*
X106824230Y-113984628D01*
X106708311Y-113961571D01*
X106526322Y-113886189D01*
X106362537Y-113776751D01*
X106223249Y-113637463D01*
X106113811Y-113473678D01*
X106038429Y-113291689D01*
X106000000Y-113098491D01*
X106000000Y-112901509D01*
X106038429Y-112708311D01*
X106113811Y-112526322D01*
X106223249Y-112362537D01*
X106362537Y-112223249D01*
X106526322Y-112113811D01*
X106708311Y-112038429D01*
X106824230Y-112015372D01*
X106901507Y-112000000D01*
X107098493Y-112000000D01*
X107175770Y-112015372D01*
X107175770Y-112015372D01*
G37*
G36*
X103000000Y-114000000D02*
X101000000Y-114000000D01*
X101000000Y-112000000D01*
X103000000Y-112000000D01*
X103000000Y-114000000D01*
X103000000Y-114000000D01*
G37*
G36*
X128601082Y-111935399D02*
X128634613Y-111945571D01*
X128665520Y-111962091D01*
X128692603Y-111984317D01*
X128714829Y-112011400D01*
X128731349Y-112042307D01*
X128741521Y-112075838D01*
X128745560Y-112116847D01*
X128745560Y-113145873D01*
X128741521Y-113186882D01*
X128731349Y-113220413D01*
X128714829Y-113251320D01*
X128692603Y-113278403D01*
X128665520Y-113300629D01*
X128634613Y-113317149D01*
X128601082Y-113327321D01*
X128560073Y-113331360D01*
X127781047Y-113331360D01*
X127740038Y-113327321D01*
X127706507Y-113317149D01*
X127675600Y-113300629D01*
X127648517Y-113278403D01*
X127626291Y-113251320D01*
X127609771Y-113220413D01*
X127599599Y-113186882D01*
X127595560Y-113145873D01*
X127595560Y-112116847D01*
X127599599Y-112075838D01*
X127609771Y-112042307D01*
X127626291Y-112011400D01*
X127648517Y-111984317D01*
X127675600Y-111962091D01*
X127706507Y-111945571D01*
X127740038Y-111935399D01*
X127781047Y-111931360D01*
X128560073Y-111931360D01*
X128601082Y-111935399D01*
X128601082Y-111935399D01*
G37*
G36*
X126551082Y-111935399D02*
X126584613Y-111945571D01*
X126615520Y-111962091D01*
X126642603Y-111984317D01*
X126664829Y-112011400D01*
X126681349Y-112042307D01*
X126691521Y-112075838D01*
X126695560Y-112116847D01*
X126695560Y-113145873D01*
X126691521Y-113186882D01*
X126681349Y-113220413D01*
X126664829Y-113251320D01*
X126642603Y-113278403D01*
X126615520Y-113300629D01*
X126584613Y-113317149D01*
X126551082Y-113327321D01*
X126510073Y-113331360D01*
X125731047Y-113331360D01*
X125690038Y-113327321D01*
X125656507Y-113317149D01*
X125625600Y-113300629D01*
X125598517Y-113278403D01*
X125576291Y-113251320D01*
X125559771Y-113220413D01*
X125549599Y-113186882D01*
X125545560Y-113145873D01*
X125545560Y-112116847D01*
X125549599Y-112075838D01*
X125559771Y-112042307D01*
X125576291Y-112011400D01*
X125598517Y-111984317D01*
X125625600Y-111962091D01*
X125656507Y-111945571D01*
X125690038Y-111935399D01*
X125731047Y-111931360D01*
X126510073Y-111931360D01*
X126551082Y-111935399D01*
X126551082Y-111935399D01*
G37*
G36*
X117380522Y-111804039D02*
X117414053Y-111814211D01*
X117444960Y-111830731D01*
X117472043Y-111852957D01*
X117494269Y-111880040D01*
X117510789Y-111910947D01*
X117520961Y-111944478D01*
X117525000Y-111985487D01*
X117525000Y-113014513D01*
X117520961Y-113055522D01*
X117510789Y-113089053D01*
X117494269Y-113119960D01*
X117472043Y-113147043D01*
X117444960Y-113169269D01*
X117414053Y-113185789D01*
X117380522Y-113195961D01*
X117339513Y-113200000D01*
X116560487Y-113200000D01*
X116519478Y-113195961D01*
X116485947Y-113185789D01*
X116455040Y-113169269D01*
X116427957Y-113147043D01*
X116405731Y-113119960D01*
X116389211Y-113089053D01*
X116379039Y-113055522D01*
X116375000Y-113014513D01*
X116375000Y-111985487D01*
X116379039Y-111944478D01*
X116389211Y-111910947D01*
X116405731Y-111880040D01*
X116427957Y-111852957D01*
X116455040Y-111830731D01*
X116485947Y-111814211D01*
X116519478Y-111804039D01*
X116560487Y-111800000D01*
X117339513Y-111800000D01*
X117380522Y-111804039D01*
X117380522Y-111804039D01*
G37*
G36*
X119430522Y-111804039D02*
X119464053Y-111814211D01*
X119494960Y-111830731D01*
X119522043Y-111852957D01*
X119544269Y-111880040D01*
X119560789Y-111910947D01*
X119570961Y-111944478D01*
X119575000Y-111985487D01*
X119575000Y-113014513D01*
X119570961Y-113055522D01*
X119560789Y-113089053D01*
X119544269Y-113119960D01*
X119522043Y-113147043D01*
X119494960Y-113169269D01*
X119464053Y-113185789D01*
X119430522Y-113195961D01*
X119389513Y-113200000D01*
X118610487Y-113200000D01*
X118569478Y-113195961D01*
X118535947Y-113185789D01*
X118505040Y-113169269D01*
X118477957Y-113147043D01*
X118455731Y-113119960D01*
X118439211Y-113089053D01*
X118429039Y-113055522D01*
X118425000Y-113014513D01*
X118425000Y-111985487D01*
X118429039Y-111944478D01*
X118439211Y-111910947D01*
X118455731Y-111880040D01*
X118477957Y-111852957D01*
X118505040Y-111830731D01*
X118535947Y-111814211D01*
X118569478Y-111804039D01*
X118610487Y-111800000D01*
X119389513Y-111800000D01*
X119430522Y-111804039D01*
X119430522Y-111804039D01*
G37*
G36*
X129223060Y-108551360D02*
X124723060Y-108551360D01*
X124723060Y-106551360D01*
X129223060Y-106551360D01*
X129223060Y-108551360D01*
X129223060Y-108551360D01*
G37*
G36*
X120723060Y-108551360D02*
X116223060Y-108551360D01*
X116223060Y-106551360D01*
X120723060Y-106551360D01*
X120723060Y-108551360D01*
X120723060Y-108551360D01*
G37*
G36*
X129091082Y-101775399D02*
X129124613Y-101785571D01*
X129155520Y-101802091D01*
X129182603Y-101824317D01*
X129204829Y-101851400D01*
X129221349Y-101882307D01*
X129231521Y-101915838D01*
X129235560Y-101956847D01*
X129235560Y-102985873D01*
X129231521Y-103026882D01*
X129221349Y-103060413D01*
X129204829Y-103091320D01*
X129182603Y-103118403D01*
X129155520Y-103140629D01*
X129124613Y-103157149D01*
X129091082Y-103167321D01*
X129050073Y-103171360D01*
X128271047Y-103171360D01*
X128230038Y-103167321D01*
X128196507Y-103157149D01*
X128165600Y-103140629D01*
X128138517Y-103118403D01*
X128116291Y-103091320D01*
X128099771Y-103060413D01*
X128089599Y-103026882D01*
X128085560Y-102985873D01*
X128085560Y-101956847D01*
X128089599Y-101915838D01*
X128099771Y-101882307D01*
X128116291Y-101851400D01*
X128138517Y-101824317D01*
X128165600Y-101802091D01*
X128196507Y-101785571D01*
X128230038Y-101775399D01*
X128271047Y-101771360D01*
X129050073Y-101771360D01*
X129091082Y-101775399D01*
X129091082Y-101775399D01*
G37*
G36*
X127041082Y-101775399D02*
X127074613Y-101785571D01*
X127105520Y-101802091D01*
X127132603Y-101824317D01*
X127154829Y-101851400D01*
X127171349Y-101882307D01*
X127181521Y-101915838D01*
X127185560Y-101956847D01*
X127185560Y-102985873D01*
X127181521Y-103026882D01*
X127171349Y-103060413D01*
X127154829Y-103091320D01*
X127132603Y-103118403D01*
X127105520Y-103140629D01*
X127074613Y-103157149D01*
X127041082Y-103167321D01*
X127000073Y-103171360D01*
X126221047Y-103171360D01*
X126180038Y-103167321D01*
X126146507Y-103157149D01*
X126115600Y-103140629D01*
X126088517Y-103118403D01*
X126066291Y-103091320D01*
X126049771Y-103060413D01*
X126039599Y-103026882D01*
X126035560Y-102985873D01*
X126035560Y-101956847D01*
X126039599Y-101915838D01*
X126049771Y-101882307D01*
X126066291Y-101851400D01*
X126088517Y-101824317D01*
X126115600Y-101802091D01*
X126146507Y-101785571D01*
X126180038Y-101775399D01*
X126221047Y-101771360D01*
X127000073Y-101771360D01*
X127041082Y-101775399D01*
X127041082Y-101775399D01*
G37*
G36*
X135999870Y-101809870D02*
X133000130Y-101809870D01*
X133000130Y-98810130D01*
X135999870Y-98810130D01*
X135999870Y-101809870D01*
X135999870Y-101809870D01*
G37*
G36*
X117786082Y-100140399D02*
X117819613Y-100150571D01*
X117850520Y-100167091D01*
X117877603Y-100189317D01*
X117899829Y-100216400D01*
X117916349Y-100247307D01*
X117926521Y-100280838D01*
X117930560Y-100321847D01*
X117930560Y-101100873D01*
X117926521Y-101141882D01*
X117916349Y-101175413D01*
X117899829Y-101206320D01*
X117877603Y-101233403D01*
X117850520Y-101255629D01*
X117819613Y-101272149D01*
X117786082Y-101282321D01*
X117745073Y-101286360D01*
X116716047Y-101286360D01*
X116675038Y-101282321D01*
X116641507Y-101272149D01*
X116610600Y-101255629D01*
X116583517Y-101233403D01*
X116561291Y-101206320D01*
X116544771Y-101175413D01*
X116534599Y-101141882D01*
X116530560Y-101100873D01*
X116530560Y-100321847D01*
X116534599Y-100280838D01*
X116544771Y-100247307D01*
X116561291Y-100216400D01*
X116583517Y-100189317D01*
X116610600Y-100167091D01*
X116641507Y-100150571D01*
X116675038Y-100140399D01*
X116716047Y-100136360D01*
X117745073Y-100136360D01*
X117786082Y-100140399D01*
X117786082Y-100140399D01*
G37*
G36*
X84775116Y-99848569D02*
X84808647Y-99858741D01*
X84839554Y-99875261D01*
X84866637Y-99897487D01*
X84888863Y-99924570D01*
X84905383Y-99955477D01*
X84915555Y-99989008D01*
X84919594Y-100030017D01*
X84919594Y-101059043D01*
X84915555Y-101100052D01*
X84905383Y-101133583D01*
X84888863Y-101164490D01*
X84866637Y-101191573D01*
X84839554Y-101213799D01*
X84808647Y-101230319D01*
X84775116Y-101240491D01*
X84734107Y-101244530D01*
X83955081Y-101244530D01*
X83914072Y-101240491D01*
X83880541Y-101230319D01*
X83849634Y-101213799D01*
X83822551Y-101191573D01*
X83800325Y-101164490D01*
X83783805Y-101133583D01*
X83773633Y-101100052D01*
X83769594Y-101059043D01*
X83769594Y-100030017D01*
X83773633Y-99989008D01*
X83783805Y-99955477D01*
X83800325Y-99924570D01*
X83822551Y-99897487D01*
X83849634Y-99875261D01*
X83880541Y-99858741D01*
X83914072Y-99848569D01*
X83955081Y-99844530D01*
X84734107Y-99844530D01*
X84775116Y-99848569D01*
X84775116Y-99848569D01*
G37*
G36*
X82725116Y-99848569D02*
X82758647Y-99858741D01*
X82789554Y-99875261D01*
X82816637Y-99897487D01*
X82838863Y-99924570D01*
X82855383Y-99955477D01*
X82865555Y-99989008D01*
X82869594Y-100030017D01*
X82869594Y-101059043D01*
X82865555Y-101100052D01*
X82855383Y-101133583D01*
X82838863Y-101164490D01*
X82816637Y-101191573D01*
X82789554Y-101213799D01*
X82758647Y-101230319D01*
X82725116Y-101240491D01*
X82684107Y-101244530D01*
X81905081Y-101244530D01*
X81864072Y-101240491D01*
X81830541Y-101230319D01*
X81799634Y-101213799D01*
X81772551Y-101191573D01*
X81750325Y-101164490D01*
X81733805Y-101133583D01*
X81723633Y-101100052D01*
X81719594Y-101059043D01*
X81719594Y-100030017D01*
X81723633Y-99989008D01*
X81733805Y-99955477D01*
X81750325Y-99924570D01*
X81772551Y-99897487D01*
X81799634Y-99875261D01*
X81830541Y-99858741D01*
X81864072Y-99848569D01*
X81905081Y-99844530D01*
X82684107Y-99844530D01*
X82725116Y-99848569D01*
X82725116Y-99848569D01*
G37*
G36*
X90470116Y-99483569D02*
X90503647Y-99493741D01*
X90534554Y-99510261D01*
X90561637Y-99532487D01*
X90583863Y-99559570D01*
X90600383Y-99590477D01*
X90610555Y-99624008D01*
X90614594Y-99665017D01*
X90614594Y-100444043D01*
X90610555Y-100485052D01*
X90600383Y-100518583D01*
X90583863Y-100549490D01*
X90561637Y-100576573D01*
X90534554Y-100598799D01*
X90503647Y-100615319D01*
X90470116Y-100625491D01*
X90429107Y-100629530D01*
X89400081Y-100629530D01*
X89359072Y-100625491D01*
X89325541Y-100615319D01*
X89294634Y-100598799D01*
X89267551Y-100576573D01*
X89245325Y-100549490D01*
X89228805Y-100518583D01*
X89218633Y-100485052D01*
X89214594Y-100444043D01*
X89214594Y-99665017D01*
X89218633Y-99624008D01*
X89228805Y-99590477D01*
X89245325Y-99559570D01*
X89267551Y-99532487D01*
X89294634Y-99510261D01*
X89325541Y-99493741D01*
X89359072Y-99483569D01*
X89400081Y-99479530D01*
X90429107Y-99479530D01*
X90470116Y-99483569D01*
X90470116Y-99483569D01*
G37*
G36*
X117786082Y-98090399D02*
X117819613Y-98100571D01*
X117850520Y-98117091D01*
X117877603Y-98139317D01*
X117899829Y-98166400D01*
X117916349Y-98197307D01*
X117926521Y-98230838D01*
X117930560Y-98271847D01*
X117930560Y-99050873D01*
X117926521Y-99091882D01*
X117916349Y-99125413D01*
X117899829Y-99156320D01*
X117877603Y-99183403D01*
X117850520Y-99205629D01*
X117819613Y-99222149D01*
X117786082Y-99232321D01*
X117745073Y-99236360D01*
X116716047Y-99236360D01*
X116675038Y-99232321D01*
X116641507Y-99222149D01*
X116610600Y-99205629D01*
X116583517Y-99183403D01*
X116561291Y-99156320D01*
X116544771Y-99125413D01*
X116534599Y-99091882D01*
X116530560Y-99050873D01*
X116530560Y-98271847D01*
X116534599Y-98230838D01*
X116544771Y-98197307D01*
X116561291Y-98166400D01*
X116583517Y-98139317D01*
X116610600Y-98117091D01*
X116641507Y-98100571D01*
X116675038Y-98090399D01*
X116716047Y-98086360D01*
X117745073Y-98086360D01*
X117786082Y-98090399D01*
X117786082Y-98090399D01*
G37*
G36*
X125845560Y-98936360D02*
X119545560Y-98936360D01*
X119545560Y-97486360D01*
X125845560Y-97486360D01*
X125845560Y-98936360D01*
X125845560Y-98936360D01*
G37*
G36*
X90470116Y-97433569D02*
X90503647Y-97443741D01*
X90534554Y-97460261D01*
X90561637Y-97482487D01*
X90583863Y-97509570D01*
X90600383Y-97540477D01*
X90610555Y-97574008D01*
X90614594Y-97615017D01*
X90614594Y-98394043D01*
X90610555Y-98435052D01*
X90600383Y-98468583D01*
X90583863Y-98499490D01*
X90561637Y-98526573D01*
X90534554Y-98548799D01*
X90503647Y-98565319D01*
X90470116Y-98575491D01*
X90429107Y-98579530D01*
X89400081Y-98579530D01*
X89359072Y-98575491D01*
X89325541Y-98565319D01*
X89294634Y-98548799D01*
X89267551Y-98526573D01*
X89245325Y-98499490D01*
X89228805Y-98468583D01*
X89218633Y-98435052D01*
X89214594Y-98394043D01*
X89214594Y-97615017D01*
X89218633Y-97574008D01*
X89228805Y-97540477D01*
X89245325Y-97509570D01*
X89267551Y-97482487D01*
X89294634Y-97460261D01*
X89325541Y-97443741D01*
X89359072Y-97433569D01*
X89400081Y-97429530D01*
X90429107Y-97429530D01*
X90470116Y-97433569D01*
X90470116Y-97433569D01*
G37*
G36*
X113555522Y-97429039D02*
X113589053Y-97439211D01*
X113619960Y-97455731D01*
X113647043Y-97477957D01*
X113669269Y-97505040D01*
X113685789Y-97535947D01*
X113695961Y-97569478D01*
X113700000Y-97610487D01*
X113700000Y-98389513D01*
X113695961Y-98430522D01*
X113685789Y-98464053D01*
X113669269Y-98494960D01*
X113647043Y-98522043D01*
X113619960Y-98544269D01*
X113589053Y-98560789D01*
X113555522Y-98570961D01*
X113514513Y-98575000D01*
X112485487Y-98575000D01*
X112444478Y-98570961D01*
X112410947Y-98560789D01*
X112380040Y-98544269D01*
X112352957Y-98522043D01*
X112330731Y-98494960D01*
X112314211Y-98464053D01*
X112304039Y-98430522D01*
X112300000Y-98389513D01*
X112300000Y-97610487D01*
X112304039Y-97569478D01*
X112314211Y-97535947D01*
X112330731Y-97505040D01*
X112352957Y-97477957D01*
X112380040Y-97455731D01*
X112410947Y-97439211D01*
X112444478Y-97429039D01*
X112485487Y-97425000D01*
X113514513Y-97425000D01*
X113555522Y-97429039D01*
X113555522Y-97429039D01*
G37*
G36*
X134840905Y-95038556D02*
X134937496Y-95057769D01*
X135050559Y-95104602D01*
X135210454Y-95170832D01*
X135456114Y-95334977D01*
X135665023Y-95543886D01*
X135829168Y-95789546D01*
X135942231Y-96062505D01*
X135999870Y-96352274D01*
X135999870Y-96647726D01*
X135942231Y-96937495D01*
X135829168Y-97210454D01*
X135665023Y-97456114D01*
X135456114Y-97665023D01*
X135210454Y-97829168D01*
X135050559Y-97895398D01*
X134937496Y-97942231D01*
X134840905Y-97961444D01*
X134647726Y-97999870D01*
X134352274Y-97999870D01*
X134159095Y-97961444D01*
X134062504Y-97942231D01*
X133949441Y-97895398D01*
X133789546Y-97829168D01*
X133543886Y-97665023D01*
X133334977Y-97456114D01*
X133170832Y-97210454D01*
X133057769Y-96937495D01*
X133000130Y-96647726D01*
X133000130Y-96352274D01*
X133057769Y-96062505D01*
X133170832Y-95789546D01*
X133334977Y-95543886D01*
X133543886Y-95334977D01*
X133789546Y-95170832D01*
X133949441Y-95104602D01*
X134062504Y-95057769D01*
X134159095Y-95038556D01*
X134352274Y-95000130D01*
X134647726Y-95000130D01*
X134840905Y-95038556D01*
X134840905Y-95038556D01*
G37*
G36*
X87094593Y-97514529D02*
X85544593Y-97514529D01*
X85544593Y-96914529D01*
X87094593Y-96914529D01*
X87094593Y-97514529D01*
X87094593Y-97514529D01*
G37*
G36*
X81694593Y-97514529D02*
X80144593Y-97514529D01*
X80144593Y-96914529D01*
X81694593Y-96914529D01*
X81694593Y-97514529D01*
X81694593Y-97514529D01*
G37*
G36*
X113555522Y-95379039D02*
X113589053Y-95389211D01*
X113619960Y-95405731D01*
X113647043Y-95427957D01*
X113669269Y-95455040D01*
X113685789Y-95485947D01*
X113695961Y-95519478D01*
X113700000Y-95560487D01*
X113700000Y-96339513D01*
X113695961Y-96380522D01*
X113685789Y-96414053D01*
X113669269Y-96444960D01*
X113647043Y-96472043D01*
X113619960Y-96494269D01*
X113589053Y-96510789D01*
X113555522Y-96520961D01*
X113514513Y-96525000D01*
X112485487Y-96525000D01*
X112444478Y-96520961D01*
X112410947Y-96510789D01*
X112380040Y-96494269D01*
X112352957Y-96472043D01*
X112330731Y-96444960D01*
X112314211Y-96414053D01*
X112304039Y-96380522D01*
X112300000Y-96339513D01*
X112300000Y-95560487D01*
X112304039Y-95519478D01*
X112314211Y-95485947D01*
X112330731Y-95455040D01*
X112352957Y-95427957D01*
X112380040Y-95405731D01*
X112410947Y-95389211D01*
X112444478Y-95379039D01*
X112485487Y-95375000D01*
X113514513Y-95375000D01*
X113555522Y-95379039D01*
X113555522Y-95379039D01*
G37*
G36*
X81694593Y-96244529D02*
X80144593Y-96244529D01*
X80144593Y-95644529D01*
X81694593Y-95644529D01*
X81694593Y-96244529D01*
X81694593Y-96244529D01*
G37*
G36*
X87094593Y-96244529D02*
X85544593Y-96244529D01*
X85544593Y-95644529D01*
X87094593Y-95644529D01*
X87094593Y-96244529D01*
X87094593Y-96244529D01*
G37*
G36*
X90470116Y-94403569D02*
X90503647Y-94413741D01*
X90534554Y-94430261D01*
X90561637Y-94452487D01*
X90583863Y-94479570D01*
X90600383Y-94510477D01*
X90610555Y-94544008D01*
X90614594Y-94585017D01*
X90614594Y-95364043D01*
X90610555Y-95405052D01*
X90600383Y-95438583D01*
X90583863Y-95469490D01*
X90561637Y-95496573D01*
X90534554Y-95518799D01*
X90503647Y-95535319D01*
X90470116Y-95545491D01*
X90429107Y-95549530D01*
X89400081Y-95549530D01*
X89359072Y-95545491D01*
X89325541Y-95535319D01*
X89294634Y-95518799D01*
X89267551Y-95496573D01*
X89245325Y-95469490D01*
X89228805Y-95438583D01*
X89218633Y-95405052D01*
X89214594Y-95364043D01*
X89214594Y-94585017D01*
X89218633Y-94544008D01*
X89228805Y-94510477D01*
X89245325Y-94479570D01*
X89267551Y-94452487D01*
X89294634Y-94430261D01*
X89325541Y-94413741D01*
X89359072Y-94403569D01*
X89400081Y-94399530D01*
X90429107Y-94399530D01*
X90470116Y-94403569D01*
X90470116Y-94403569D01*
G37*
G36*
X76500116Y-94403569D02*
X76533647Y-94413741D01*
X76564554Y-94430261D01*
X76591637Y-94452487D01*
X76613863Y-94479570D01*
X76630383Y-94510477D01*
X76640555Y-94544008D01*
X76644594Y-94585017D01*
X76644594Y-95364043D01*
X76640555Y-95405052D01*
X76630383Y-95438583D01*
X76613863Y-95469490D01*
X76591637Y-95496573D01*
X76564554Y-95518799D01*
X76533647Y-95535319D01*
X76500116Y-95545491D01*
X76459107Y-95549530D01*
X75430081Y-95549530D01*
X75389072Y-95545491D01*
X75355541Y-95535319D01*
X75324634Y-95518799D01*
X75297551Y-95496573D01*
X75275325Y-95469490D01*
X75258805Y-95438583D01*
X75248633Y-95405052D01*
X75244594Y-95364043D01*
X75244594Y-94585017D01*
X75248633Y-94544008D01*
X75258805Y-94510477D01*
X75275325Y-94479570D01*
X75297551Y-94452487D01*
X75324634Y-94430261D01*
X75355541Y-94413741D01*
X75389072Y-94403569D01*
X75430081Y-94399530D01*
X76459107Y-94399530D01*
X76500116Y-94403569D01*
X76500116Y-94403569D01*
G37*
G36*
X87094593Y-94974529D02*
X85544593Y-94974529D01*
X85544593Y-94374529D01*
X87094593Y-94374529D01*
X87094593Y-94974529D01*
X87094593Y-94974529D01*
G37*
G36*
X81694593Y-94974529D02*
X80144593Y-94974529D01*
X80144593Y-94374529D01*
X81694593Y-94374529D01*
X81694593Y-94974529D01*
X81694593Y-94974529D01*
G37*
G36*
X134840905Y-91228556D02*
X134937496Y-91247769D01*
X135003239Y-91275001D01*
X135210454Y-91360832D01*
X135456114Y-91524977D01*
X135665023Y-91733886D01*
X135829168Y-91979546D01*
X135942231Y-92252505D01*
X135999870Y-92542274D01*
X135999870Y-92837726D01*
X135942231Y-93127495D01*
X135829168Y-93400454D01*
X135665023Y-93646114D01*
X135456114Y-93855023D01*
X135210454Y-94019168D01*
X135050559Y-94085398D01*
X134937496Y-94132231D01*
X134840905Y-94151444D01*
X134647726Y-94189870D01*
X134352274Y-94189870D01*
X134159095Y-94151444D01*
X134062504Y-94132231D01*
X133949441Y-94085398D01*
X133789546Y-94019168D01*
X133543886Y-93855023D01*
X133334977Y-93646114D01*
X133170832Y-93400454D01*
X133057769Y-93127495D01*
X133000130Y-92837726D01*
X133000130Y-92542274D01*
X133057769Y-92252505D01*
X133170832Y-91979546D01*
X133334977Y-91733886D01*
X133543886Y-91524977D01*
X133789546Y-91360832D01*
X133996761Y-91275001D01*
X134062504Y-91247769D01*
X134159095Y-91228556D01*
X134352274Y-91190130D01*
X134647726Y-91190130D01*
X134840905Y-91228556D01*
X134840905Y-91228556D01*
G37*
G36*
X87094593Y-93704529D02*
X85544593Y-93704529D01*
X85544593Y-93104529D01*
X87094593Y-93104529D01*
X87094593Y-93704529D01*
X87094593Y-93704529D01*
G37*
G36*
X81694593Y-93704529D02*
X80144593Y-93704529D01*
X80144593Y-93104529D01*
X81694593Y-93104529D01*
X81694593Y-93704529D01*
X81694593Y-93704529D01*
G37*
G36*
X113555522Y-92429039D02*
X113589053Y-92439211D01*
X113619960Y-92455731D01*
X113647043Y-92477957D01*
X113669269Y-92505040D01*
X113685789Y-92535947D01*
X113695961Y-92569478D01*
X113700000Y-92610487D01*
X113700000Y-93389513D01*
X113695961Y-93430522D01*
X113685789Y-93464053D01*
X113669269Y-93494960D01*
X113647043Y-93522043D01*
X113619960Y-93544269D01*
X113589053Y-93560789D01*
X113555522Y-93570961D01*
X113514513Y-93575000D01*
X112485487Y-93575000D01*
X112444478Y-93570961D01*
X112410947Y-93560789D01*
X112380040Y-93544269D01*
X112352957Y-93522043D01*
X112330731Y-93494960D01*
X112314211Y-93464053D01*
X112304039Y-93430522D01*
X112300000Y-93389513D01*
X112300000Y-92610487D01*
X112304039Y-92569478D01*
X112314211Y-92535947D01*
X112330731Y-92505040D01*
X112352957Y-92477957D01*
X112380040Y-92455731D01*
X112410947Y-92439211D01*
X112444478Y-92429039D01*
X112485487Y-92425000D01*
X113514513Y-92425000D01*
X113555522Y-92429039D01*
X113555522Y-92429039D01*
G37*
G36*
X76500116Y-92353569D02*
X76533647Y-92363741D01*
X76564554Y-92380261D01*
X76591637Y-92402487D01*
X76613863Y-92429570D01*
X76630383Y-92460477D01*
X76640555Y-92494008D01*
X76644594Y-92535017D01*
X76644594Y-93314043D01*
X76640555Y-93355052D01*
X76630383Y-93388583D01*
X76613863Y-93419490D01*
X76591637Y-93446573D01*
X76564554Y-93468799D01*
X76533647Y-93485319D01*
X76500116Y-93495491D01*
X76459107Y-93499530D01*
X75430081Y-93499530D01*
X75389072Y-93495491D01*
X75355541Y-93485319D01*
X75324634Y-93468799D01*
X75297551Y-93446573D01*
X75275325Y-93419490D01*
X75258805Y-93388583D01*
X75248633Y-93355052D01*
X75244594Y-93314043D01*
X75244594Y-92535017D01*
X75248633Y-92494008D01*
X75258805Y-92460477D01*
X75275325Y-92429570D01*
X75297551Y-92402487D01*
X75324634Y-92380261D01*
X75355541Y-92363741D01*
X75389072Y-92353569D01*
X75430081Y-92349530D01*
X76459107Y-92349530D01*
X76500116Y-92353569D01*
X76500116Y-92353569D01*
G37*
G36*
X90470116Y-92353569D02*
X90503647Y-92363741D01*
X90534554Y-92380261D01*
X90561637Y-92402487D01*
X90583863Y-92429570D01*
X90600383Y-92460477D01*
X90610555Y-92494008D01*
X90614594Y-92535017D01*
X90614594Y-93314043D01*
X90610555Y-93355052D01*
X90600383Y-93388583D01*
X90583863Y-93419490D01*
X90561637Y-93446573D01*
X90534554Y-93468799D01*
X90503647Y-93485319D01*
X90470116Y-93495491D01*
X90429107Y-93499530D01*
X89400081Y-93499530D01*
X89359072Y-93495491D01*
X89325541Y-93485319D01*
X89294634Y-93468799D01*
X89267551Y-93446573D01*
X89245325Y-93419490D01*
X89228805Y-93388583D01*
X89218633Y-93355052D01*
X89214594Y-93314043D01*
X89214594Y-92535017D01*
X89218633Y-92494008D01*
X89228805Y-92460477D01*
X89245325Y-92429570D01*
X89267551Y-92402487D01*
X89294634Y-92380261D01*
X89325541Y-92363741D01*
X89359072Y-92353569D01*
X89400081Y-92349530D01*
X90429107Y-92349530D01*
X90470116Y-92353569D01*
X90470116Y-92353569D01*
G37*
G36*
X125845560Y-93036360D02*
X119545560Y-93036360D01*
X119545560Y-91586360D01*
X125845560Y-91586360D01*
X125845560Y-93036360D01*
X125845560Y-93036360D01*
G37*
G36*
X72999834Y-91823810D02*
X71299834Y-91823810D01*
X71299834Y-90123810D01*
X72999834Y-90123810D01*
X72999834Y-91823810D01*
X72999834Y-91823810D01*
G37*
G36*
X113555522Y-90379039D02*
X113589053Y-90389211D01*
X113619960Y-90405731D01*
X113647043Y-90427957D01*
X113669269Y-90455040D01*
X113685789Y-90485947D01*
X113695961Y-90519478D01*
X113700000Y-90560487D01*
X113700000Y-91339513D01*
X113695961Y-91380522D01*
X113685789Y-91414053D01*
X113669269Y-91444960D01*
X113647043Y-91472043D01*
X113619960Y-91494269D01*
X113589053Y-91510789D01*
X113555522Y-91520961D01*
X113514513Y-91525000D01*
X112485487Y-91525000D01*
X112444478Y-91520961D01*
X112410947Y-91510789D01*
X112380040Y-91494269D01*
X112352957Y-91472043D01*
X112330731Y-91444960D01*
X112314211Y-91414053D01*
X112304039Y-91380522D01*
X112300000Y-91339513D01*
X112300000Y-90560487D01*
X112304039Y-90519478D01*
X112314211Y-90485947D01*
X112330731Y-90455040D01*
X112352957Y-90427957D01*
X112380040Y-90405731D01*
X112410947Y-90389211D01*
X112444478Y-90379039D01*
X112485487Y-90375000D01*
X113514513Y-90375000D01*
X113555522Y-90379039D01*
X113555522Y-90379039D01*
G37*
G36*
X134840905Y-87418556D02*
X134937496Y-87437769D01*
X135050559Y-87484602D01*
X135210454Y-87550832D01*
X135456114Y-87714977D01*
X135665023Y-87923886D01*
X135829168Y-88169546D01*
X135895398Y-88329441D01*
X135942231Y-88442504D01*
X135958735Y-88525477D01*
X135986395Y-88664529D01*
X135999870Y-88732276D01*
X135999870Y-89027724D01*
X135948932Y-89283810D01*
X135942231Y-89317495D01*
X135829168Y-89590454D01*
X135665023Y-89836114D01*
X135456114Y-90045023D01*
X135210454Y-90209168D01*
X135050559Y-90275398D01*
X134937496Y-90322231D01*
X134840905Y-90341444D01*
X134647726Y-90379870D01*
X134352274Y-90379870D01*
X134159095Y-90341444D01*
X134062504Y-90322231D01*
X133949441Y-90275398D01*
X133789546Y-90209168D01*
X133543886Y-90045023D01*
X133334977Y-89836114D01*
X133170832Y-89590454D01*
X133057769Y-89317495D01*
X133051069Y-89283810D01*
X133000130Y-89027724D01*
X133000130Y-88732276D01*
X133013606Y-88664529D01*
X133041265Y-88525477D01*
X133057769Y-88442504D01*
X133104602Y-88329441D01*
X133170832Y-88169546D01*
X133334977Y-87923886D01*
X133543886Y-87714977D01*
X133789546Y-87550832D01*
X133949441Y-87484602D01*
X134062504Y-87437769D01*
X134159095Y-87418556D01*
X134352274Y-87380130D01*
X134647726Y-87380130D01*
X134840905Y-87418556D01*
X134840905Y-87418556D01*
G37*
G36*
X89855116Y-88418569D02*
X89888647Y-88428741D01*
X89919554Y-88445261D01*
X89946637Y-88467487D01*
X89968863Y-88494570D01*
X89985383Y-88525477D01*
X89995555Y-88559008D01*
X89999594Y-88600017D01*
X89999594Y-89629043D01*
X89995555Y-89670052D01*
X89985383Y-89703583D01*
X89968863Y-89734490D01*
X89946637Y-89761573D01*
X89919554Y-89783799D01*
X89888647Y-89800319D01*
X89855116Y-89810491D01*
X89814107Y-89814530D01*
X89035081Y-89814530D01*
X88994072Y-89810491D01*
X88960541Y-89800319D01*
X88929634Y-89783799D01*
X88902551Y-89761573D01*
X88880325Y-89734490D01*
X88863805Y-89703583D01*
X88853633Y-89670052D01*
X88849594Y-89629043D01*
X88849594Y-88600017D01*
X88853633Y-88559008D01*
X88863805Y-88525477D01*
X88880325Y-88494570D01*
X88902551Y-88467487D01*
X88929634Y-88445261D01*
X88960541Y-88428741D01*
X88994072Y-88418569D01*
X89035081Y-88414530D01*
X89814107Y-88414530D01*
X89855116Y-88418569D01*
X89855116Y-88418569D01*
G37*
G36*
X77890116Y-88418569D02*
X77923647Y-88428741D01*
X77954554Y-88445261D01*
X77981637Y-88467487D01*
X78003863Y-88494570D01*
X78020383Y-88525477D01*
X78030555Y-88559008D01*
X78034594Y-88600017D01*
X78034594Y-89629043D01*
X78030555Y-89670052D01*
X78020383Y-89703583D01*
X78003863Y-89734490D01*
X77981637Y-89761573D01*
X77954554Y-89783799D01*
X77923647Y-89800319D01*
X77890116Y-89810491D01*
X77849107Y-89814530D01*
X77070081Y-89814530D01*
X77029072Y-89810491D01*
X76995541Y-89800319D01*
X76964634Y-89783799D01*
X76937551Y-89761573D01*
X76915325Y-89734490D01*
X76898805Y-89703583D01*
X76888633Y-89670052D01*
X76884594Y-89629043D01*
X76884594Y-88600017D01*
X76888633Y-88559008D01*
X76898805Y-88525477D01*
X76915325Y-88494570D01*
X76937551Y-88467487D01*
X76964634Y-88445261D01*
X76995541Y-88428741D01*
X77029072Y-88418569D01*
X77070081Y-88414530D01*
X77849107Y-88414530D01*
X77890116Y-88418569D01*
X77890116Y-88418569D01*
G37*
G36*
X79940116Y-88418569D02*
X79973647Y-88428741D01*
X80004554Y-88445261D01*
X80031637Y-88467487D01*
X80053863Y-88494570D01*
X80070383Y-88525477D01*
X80080555Y-88559008D01*
X80084594Y-88600017D01*
X80084594Y-89629043D01*
X80080555Y-89670052D01*
X80070383Y-89703583D01*
X80053863Y-89734490D01*
X80031637Y-89761573D01*
X80004554Y-89783799D01*
X79973647Y-89800319D01*
X79940116Y-89810491D01*
X79899107Y-89814530D01*
X79120081Y-89814530D01*
X79079072Y-89810491D01*
X79045541Y-89800319D01*
X79014634Y-89783799D01*
X78987551Y-89761573D01*
X78965325Y-89734490D01*
X78948805Y-89703583D01*
X78938633Y-89670052D01*
X78934594Y-89629043D01*
X78934594Y-88600017D01*
X78938633Y-88559008D01*
X78948805Y-88525477D01*
X78965325Y-88494570D01*
X78987551Y-88467487D01*
X79014634Y-88445261D01*
X79045541Y-88428741D01*
X79079072Y-88418569D01*
X79120081Y-88414530D01*
X79899107Y-88414530D01*
X79940116Y-88418569D01*
X79940116Y-88418569D01*
G37*
G36*
X82725116Y-88418569D02*
X82758647Y-88428741D01*
X82789554Y-88445261D01*
X82816637Y-88467487D01*
X82838863Y-88494570D01*
X82855383Y-88525477D01*
X82865555Y-88559008D01*
X82869594Y-88600017D01*
X82869594Y-89629043D01*
X82865555Y-89670052D01*
X82855383Y-89703583D01*
X82838863Y-89734490D01*
X82816637Y-89761573D01*
X82789554Y-89783799D01*
X82758647Y-89800319D01*
X82725116Y-89810491D01*
X82684107Y-89814530D01*
X81905081Y-89814530D01*
X81864072Y-89810491D01*
X81830541Y-89800319D01*
X81799634Y-89783799D01*
X81772551Y-89761573D01*
X81750325Y-89734490D01*
X81733805Y-89703583D01*
X81723633Y-89670052D01*
X81719594Y-89629043D01*
X81719594Y-88600017D01*
X81723633Y-88559008D01*
X81733805Y-88525477D01*
X81750325Y-88494570D01*
X81772551Y-88467487D01*
X81799634Y-88445261D01*
X81830541Y-88428741D01*
X81864072Y-88418569D01*
X81905081Y-88414530D01*
X82684107Y-88414530D01*
X82725116Y-88418569D01*
X82725116Y-88418569D01*
G37*
G36*
X87805116Y-88418569D02*
X87838647Y-88428741D01*
X87869554Y-88445261D01*
X87896637Y-88467487D01*
X87918863Y-88494570D01*
X87935383Y-88525477D01*
X87945555Y-88559008D01*
X87949594Y-88600017D01*
X87949594Y-89629043D01*
X87945555Y-89670052D01*
X87935383Y-89703583D01*
X87918863Y-89734490D01*
X87896637Y-89761573D01*
X87869554Y-89783799D01*
X87838647Y-89800319D01*
X87805116Y-89810491D01*
X87764107Y-89814530D01*
X86985081Y-89814530D01*
X86944072Y-89810491D01*
X86910541Y-89800319D01*
X86879634Y-89783799D01*
X86852551Y-89761573D01*
X86830325Y-89734490D01*
X86813805Y-89703583D01*
X86803633Y-89670052D01*
X86799594Y-89629043D01*
X86799594Y-88600017D01*
X86803633Y-88559008D01*
X86813805Y-88525477D01*
X86830325Y-88494570D01*
X86852551Y-88467487D01*
X86879634Y-88445261D01*
X86910541Y-88428741D01*
X86944072Y-88418569D01*
X86985081Y-88414530D01*
X87764107Y-88414530D01*
X87805116Y-88418569D01*
X87805116Y-88418569D01*
G37*
G36*
X84775116Y-88418569D02*
X84808647Y-88428741D01*
X84839554Y-88445261D01*
X84866637Y-88467487D01*
X84888863Y-88494570D01*
X84905383Y-88525477D01*
X84915555Y-88559008D01*
X84919594Y-88600017D01*
X84919594Y-89629043D01*
X84915555Y-89670052D01*
X84905383Y-89703583D01*
X84888863Y-89734490D01*
X84866637Y-89761573D01*
X84839554Y-89783799D01*
X84808647Y-89800319D01*
X84775116Y-89810491D01*
X84734107Y-89814530D01*
X83955081Y-89814530D01*
X83914072Y-89810491D01*
X83880541Y-89800319D01*
X83849634Y-89783799D01*
X83822551Y-89761573D01*
X83800325Y-89734490D01*
X83783805Y-89703583D01*
X83773633Y-89670052D01*
X83769594Y-89629043D01*
X83769594Y-88600017D01*
X83773633Y-88559008D01*
X83783805Y-88525477D01*
X83800325Y-88494570D01*
X83822551Y-88467487D01*
X83849634Y-88445261D01*
X83880541Y-88428741D01*
X83914072Y-88418569D01*
X83955081Y-88414530D01*
X84734107Y-88414530D01*
X84775116Y-88418569D01*
X84775116Y-88418569D01*
G37*
G36*
X72316464Y-87596109D02*
X72476689Y-87644713D01*
X72624354Y-87723641D01*
X72753783Y-87829861D01*
X72860003Y-87959290D01*
X72938931Y-88106955D01*
X72987535Y-88267180D01*
X73003946Y-88433810D01*
X72987535Y-88600440D01*
X72938931Y-88760665D01*
X72860003Y-88908330D01*
X72753783Y-89037759D01*
X72624354Y-89143979D01*
X72476689Y-89222907D01*
X72316464Y-89271511D01*
X72191586Y-89283810D01*
X72108082Y-89283810D01*
X71983204Y-89271511D01*
X71822979Y-89222907D01*
X71675314Y-89143979D01*
X71545885Y-89037759D01*
X71439665Y-88908330D01*
X71360737Y-88760665D01*
X71312133Y-88600440D01*
X71295722Y-88433810D01*
X71312133Y-88267180D01*
X71360737Y-88106955D01*
X71439665Y-87959290D01*
X71545885Y-87829861D01*
X71675314Y-87723641D01*
X71822979Y-87644713D01*
X71983204Y-87596109D01*
X72108082Y-87583810D01*
X72191586Y-87583810D01*
X72316464Y-87596109D01*
X72316464Y-87596109D01*
G37*
G36*
X115125040Y-87876040D02*
X114725040Y-87876040D01*
X114725040Y-86976040D01*
X115125040Y-86976040D01*
X115125040Y-87876040D01*
X115125040Y-87876040D01*
G37*
G36*
X116725040Y-87876040D02*
X116325040Y-87876040D01*
X116325040Y-86976040D01*
X116725040Y-86976040D01*
X116725040Y-87876040D01*
X116725040Y-87876040D01*
G37*
G36*
X115925040Y-87876040D02*
X115525040Y-87876040D01*
X115525040Y-86976040D01*
X115925040Y-86976040D01*
X115925040Y-87876040D01*
X115925040Y-87876040D01*
G37*
G36*
X114325040Y-87876040D02*
X113925040Y-87876040D01*
X113925040Y-86976040D01*
X114325040Y-86976040D01*
X114325040Y-87876040D01*
X114325040Y-87876040D01*
G37*
G36*
X81880522Y-84804039D02*
X81914053Y-84814211D01*
X81944960Y-84830731D01*
X81972043Y-84852957D01*
X81994269Y-84880040D01*
X82010789Y-84910947D01*
X82020961Y-84944478D01*
X82025000Y-84985487D01*
X82025000Y-86014513D01*
X82020961Y-86055522D01*
X82010789Y-86089053D01*
X81994269Y-86119960D01*
X81972043Y-86147043D01*
X81944960Y-86169269D01*
X81914053Y-86185789D01*
X81880522Y-86195961D01*
X81839513Y-86200000D01*
X81060487Y-86200000D01*
X81019478Y-86195961D01*
X80985947Y-86185789D01*
X80955040Y-86169269D01*
X80927957Y-86147043D01*
X80905731Y-86119960D01*
X80889211Y-86089053D01*
X80879039Y-86055522D01*
X80875000Y-86014513D01*
X80875000Y-84985487D01*
X80879039Y-84944478D01*
X80889211Y-84910947D01*
X80905731Y-84880040D01*
X80927957Y-84852957D01*
X80955040Y-84830731D01*
X80985947Y-84814211D01*
X81019478Y-84804039D01*
X81060487Y-84800000D01*
X81839513Y-84800000D01*
X81880522Y-84804039D01*
X81880522Y-84804039D01*
G37*
G36*
X83930522Y-84804039D02*
X83964053Y-84814211D01*
X83994960Y-84830731D01*
X84022043Y-84852957D01*
X84044269Y-84880040D01*
X84060789Y-84910947D01*
X84070961Y-84944478D01*
X84075000Y-84985487D01*
X84075000Y-86014513D01*
X84070961Y-86055522D01*
X84060789Y-86089053D01*
X84044269Y-86119960D01*
X84022043Y-86147043D01*
X83994960Y-86169269D01*
X83964053Y-86185789D01*
X83930522Y-86195961D01*
X83889513Y-86200000D01*
X83110487Y-86200000D01*
X83069478Y-86195961D01*
X83035947Y-86185789D01*
X83005040Y-86169269D01*
X82977957Y-86147043D01*
X82955731Y-86119960D01*
X82939211Y-86089053D01*
X82929039Y-86055522D01*
X82925000Y-86014513D01*
X82925000Y-84985487D01*
X82929039Y-84944478D01*
X82939211Y-84910947D01*
X82955731Y-84880040D01*
X82977957Y-84852957D01*
X83005040Y-84830731D01*
X83035947Y-84814211D01*
X83069478Y-84804039D01*
X83110487Y-84800000D01*
X83889513Y-84800000D01*
X83930522Y-84804039D01*
X83930522Y-84804039D01*
G37*
G36*
X86880522Y-84804039D02*
X86914053Y-84814211D01*
X86944960Y-84830731D01*
X86972043Y-84852957D01*
X86994269Y-84880040D01*
X87010789Y-84910947D01*
X87020961Y-84944478D01*
X87025000Y-84985487D01*
X87025000Y-86014513D01*
X87020961Y-86055522D01*
X87010789Y-86089053D01*
X86994269Y-86119960D01*
X86972043Y-86147043D01*
X86944960Y-86169269D01*
X86914053Y-86185789D01*
X86880522Y-86195961D01*
X86839513Y-86200000D01*
X86060487Y-86200000D01*
X86019478Y-86195961D01*
X85985947Y-86185789D01*
X85955040Y-86169269D01*
X85927957Y-86147043D01*
X85905731Y-86119960D01*
X85889211Y-86089053D01*
X85879039Y-86055522D01*
X85875000Y-86014513D01*
X85875000Y-84985487D01*
X85879039Y-84944478D01*
X85889211Y-84910947D01*
X85905731Y-84880040D01*
X85927957Y-84852957D01*
X85955040Y-84830731D01*
X85985947Y-84814211D01*
X86019478Y-84804039D01*
X86060487Y-84800000D01*
X86839513Y-84800000D01*
X86880522Y-84804039D01*
X86880522Y-84804039D01*
G37*
G36*
X88930522Y-84804039D02*
X88964053Y-84814211D01*
X88994960Y-84830731D01*
X89022043Y-84852957D01*
X89044269Y-84880040D01*
X89060789Y-84910947D01*
X89070961Y-84944478D01*
X89075000Y-84985487D01*
X89075000Y-86014513D01*
X89070961Y-86055522D01*
X89060789Y-86089053D01*
X89044269Y-86119960D01*
X89022043Y-86147043D01*
X88994960Y-86169269D01*
X88964053Y-86185789D01*
X88930522Y-86195961D01*
X88889513Y-86200000D01*
X88110487Y-86200000D01*
X88069478Y-86195961D01*
X88035947Y-86185789D01*
X88005040Y-86169269D01*
X87977957Y-86147043D01*
X87955731Y-86119960D01*
X87939211Y-86089053D01*
X87929039Y-86055522D01*
X87925000Y-86014513D01*
X87925000Y-84985487D01*
X87929039Y-84944478D01*
X87939211Y-84910947D01*
X87955731Y-84880040D01*
X87977957Y-84852957D01*
X88005040Y-84830731D01*
X88035947Y-84814211D01*
X88069478Y-84804039D01*
X88110487Y-84800000D01*
X88889513Y-84800000D01*
X88930522Y-84804039D01*
X88930522Y-84804039D01*
G37*
G36*
X114325040Y-86176040D02*
X113925040Y-86176040D01*
X113925040Y-85276040D01*
X114325040Y-85276040D01*
X114325040Y-86176040D01*
X114325040Y-86176040D01*
G37*
G36*
X115125040Y-86176040D02*
X114725040Y-86176040D01*
X114725040Y-85276040D01*
X115125040Y-85276040D01*
X115125040Y-86176040D01*
X115125040Y-86176040D01*
G37*
G36*
X115925040Y-86176040D02*
X115525040Y-86176040D01*
X115525040Y-85276040D01*
X115925040Y-85276040D01*
X115925040Y-86176040D01*
X115925040Y-86176040D01*
G37*
G36*
X116725040Y-86176040D02*
X116325040Y-86176040D01*
X116325040Y-85276040D01*
X116725040Y-85276040D01*
X116725040Y-86176040D01*
X116725040Y-86176040D01*
G37*
G36*
X121837708Y-80714479D02*
X121871239Y-80724651D01*
X121902146Y-80741171D01*
X121929229Y-80763397D01*
X121951455Y-80790480D01*
X121967975Y-80821387D01*
X121978147Y-80854918D01*
X121982186Y-80895927D01*
X121982186Y-81674953D01*
X121978147Y-81715962D01*
X121967975Y-81749493D01*
X121951455Y-81780400D01*
X121929229Y-81807483D01*
X121902146Y-81829709D01*
X121871239Y-81846229D01*
X121837708Y-81856401D01*
X121796699Y-81860440D01*
X120767673Y-81860440D01*
X120726664Y-81856401D01*
X120693133Y-81846229D01*
X120662226Y-81829709D01*
X120635143Y-81807483D01*
X120612917Y-81780400D01*
X120596397Y-81749493D01*
X120586225Y-81715962D01*
X120582186Y-81674953D01*
X120582186Y-80895927D01*
X120586225Y-80854918D01*
X120596397Y-80821387D01*
X120612917Y-80790480D01*
X120635143Y-80763397D01*
X120662226Y-80741171D01*
X120693133Y-80724651D01*
X120726664Y-80714479D01*
X120767673Y-80710440D01*
X121796699Y-80710440D01*
X121837708Y-80714479D01*
X121837708Y-80714479D01*
G37*
G36*
X111107055Y-80714479D02*
X111140586Y-80724651D01*
X111171493Y-80741171D01*
X111198576Y-80763397D01*
X111220802Y-80790480D01*
X111237322Y-80821387D01*
X111247494Y-80854918D01*
X111251533Y-80895927D01*
X111251533Y-81674953D01*
X111247494Y-81715962D01*
X111237322Y-81749493D01*
X111220802Y-81780400D01*
X111198576Y-81807483D01*
X111171493Y-81829709D01*
X111140586Y-81846229D01*
X111107055Y-81856401D01*
X111066046Y-81860440D01*
X110037020Y-81860440D01*
X109996011Y-81856401D01*
X109962480Y-81846229D01*
X109931573Y-81829709D01*
X109904490Y-81807483D01*
X109882264Y-81780400D01*
X109865744Y-81749493D01*
X109855572Y-81715962D01*
X109851533Y-81674953D01*
X109851533Y-80895927D01*
X109855572Y-80854918D01*
X109865744Y-80821387D01*
X109882264Y-80790480D01*
X109904490Y-80763397D01*
X109931573Y-80741171D01*
X109962480Y-80724651D01*
X109996011Y-80714479D01*
X110037020Y-80710440D01*
X111066046Y-80710440D01*
X111107055Y-80714479D01*
X111107055Y-80714479D01*
G37*
G36*
X100376402Y-80714479D02*
X100409933Y-80724651D01*
X100440840Y-80741171D01*
X100467923Y-80763397D01*
X100490149Y-80790480D01*
X100506669Y-80821387D01*
X100516841Y-80854918D01*
X100520880Y-80895927D01*
X100520880Y-81674953D01*
X100516841Y-81715962D01*
X100506669Y-81749493D01*
X100490149Y-81780400D01*
X100467923Y-81807483D01*
X100440840Y-81829709D01*
X100409933Y-81846229D01*
X100376402Y-81856401D01*
X100335393Y-81860440D01*
X99306367Y-81860440D01*
X99265358Y-81856401D01*
X99231827Y-81846229D01*
X99200920Y-81829709D01*
X99173837Y-81807483D01*
X99151611Y-81780400D01*
X99135091Y-81749493D01*
X99124919Y-81715962D01*
X99120880Y-81674953D01*
X99120880Y-80895927D01*
X99124919Y-80854918D01*
X99135091Y-80821387D01*
X99151611Y-80790480D01*
X99173837Y-80763397D01*
X99200920Y-80741171D01*
X99231827Y-80724651D01*
X99265358Y-80714479D01*
X99306367Y-80710440D01*
X100335393Y-80710440D01*
X100376402Y-80714479D01*
X100376402Y-80714479D01*
G37*
G36*
X132568362Y-80714479D02*
X132601893Y-80724651D01*
X132632800Y-80741171D01*
X132659883Y-80763397D01*
X132682109Y-80790480D01*
X132698629Y-80821387D01*
X132708801Y-80854918D01*
X132712840Y-80895927D01*
X132712840Y-81674953D01*
X132708801Y-81715962D01*
X132698629Y-81749493D01*
X132682109Y-81780400D01*
X132659883Y-81807483D01*
X132632800Y-81829709D01*
X132601893Y-81846229D01*
X132568362Y-81856401D01*
X132527353Y-81860440D01*
X131498327Y-81860440D01*
X131457318Y-81856401D01*
X131423787Y-81846229D01*
X131392880Y-81829709D01*
X131365797Y-81807483D01*
X131343571Y-81780400D01*
X131327051Y-81749493D01*
X131316879Y-81715962D01*
X131312840Y-81674953D01*
X131312840Y-80895927D01*
X131316879Y-80854918D01*
X131327051Y-80821387D01*
X131343571Y-80790480D01*
X131365797Y-80763397D01*
X131392880Y-80741171D01*
X131423787Y-80724651D01*
X131457318Y-80714479D01*
X131498327Y-80710440D01*
X132527353Y-80710440D01*
X132568362Y-80714479D01*
X132568362Y-80714479D01*
G37*
G36*
X100376402Y-78664479D02*
X100409933Y-78674651D01*
X100440840Y-78691171D01*
X100467923Y-78713397D01*
X100490149Y-78740480D01*
X100506669Y-78771387D01*
X100516841Y-78804918D01*
X100520880Y-78845927D01*
X100520880Y-79624953D01*
X100516841Y-79665962D01*
X100506669Y-79699493D01*
X100490149Y-79730400D01*
X100467923Y-79757483D01*
X100440840Y-79779709D01*
X100409933Y-79796229D01*
X100376402Y-79806401D01*
X100335393Y-79810440D01*
X99306367Y-79810440D01*
X99265358Y-79806401D01*
X99231827Y-79796229D01*
X99200920Y-79779709D01*
X99173837Y-79757483D01*
X99151611Y-79730400D01*
X99135091Y-79699493D01*
X99124919Y-79665962D01*
X99120880Y-79624953D01*
X99120880Y-78845927D01*
X99124919Y-78804918D01*
X99135091Y-78771387D01*
X99151611Y-78740480D01*
X99173837Y-78713397D01*
X99200920Y-78691171D01*
X99231827Y-78674651D01*
X99265358Y-78664479D01*
X99306367Y-78660440D01*
X100335393Y-78660440D01*
X100376402Y-78664479D01*
X100376402Y-78664479D01*
G37*
G36*
X111107055Y-78664479D02*
X111140586Y-78674651D01*
X111171493Y-78691171D01*
X111198576Y-78713397D01*
X111220802Y-78740480D01*
X111237322Y-78771387D01*
X111247494Y-78804918D01*
X111251533Y-78845927D01*
X111251533Y-79624953D01*
X111247494Y-79665962D01*
X111237322Y-79699493D01*
X111220802Y-79730400D01*
X111198576Y-79757483D01*
X111171493Y-79779709D01*
X111140586Y-79796229D01*
X111107055Y-79806401D01*
X111066046Y-79810440D01*
X110037020Y-79810440D01*
X109996011Y-79806401D01*
X109962480Y-79796229D01*
X109931573Y-79779709D01*
X109904490Y-79757483D01*
X109882264Y-79730400D01*
X109865744Y-79699493D01*
X109855572Y-79665962D01*
X109851533Y-79624953D01*
X109851533Y-78845927D01*
X109855572Y-78804918D01*
X109865744Y-78771387D01*
X109882264Y-78740480D01*
X109904490Y-78713397D01*
X109931573Y-78691171D01*
X109962480Y-78674651D01*
X109996011Y-78664479D01*
X110037020Y-78660440D01*
X111066046Y-78660440D01*
X111107055Y-78664479D01*
X111107055Y-78664479D01*
G37*
G36*
X132568362Y-78664479D02*
X132601893Y-78674651D01*
X132632800Y-78691171D01*
X132659883Y-78713397D01*
X132682109Y-78740480D01*
X132698629Y-78771387D01*
X132708801Y-78804918D01*
X132712840Y-78845927D01*
X132712840Y-79624953D01*
X132708801Y-79665962D01*
X132698629Y-79699493D01*
X132682109Y-79730400D01*
X132659883Y-79757483D01*
X132632800Y-79779709D01*
X132601893Y-79796229D01*
X132568362Y-79806401D01*
X132527353Y-79810440D01*
X131498327Y-79810440D01*
X131457318Y-79806401D01*
X131423787Y-79796229D01*
X131392880Y-79779709D01*
X131365797Y-79757483D01*
X131343571Y-79730400D01*
X131327051Y-79699493D01*
X131316879Y-79665962D01*
X131312840Y-79624953D01*
X131312840Y-78845927D01*
X131316879Y-78804918D01*
X131327051Y-78771387D01*
X131343571Y-78740480D01*
X131365797Y-78713397D01*
X131392880Y-78691171D01*
X131423787Y-78674651D01*
X131457318Y-78664479D01*
X131498327Y-78660440D01*
X132527353Y-78660440D01*
X132568362Y-78664479D01*
X132568362Y-78664479D01*
G37*
G36*
X121837708Y-78664479D02*
X121871239Y-78674651D01*
X121902146Y-78691171D01*
X121929229Y-78713397D01*
X121951455Y-78740480D01*
X121967975Y-78771387D01*
X121978147Y-78804918D01*
X121982186Y-78845927D01*
X121982186Y-79624953D01*
X121978147Y-79665962D01*
X121967975Y-79699493D01*
X121951455Y-79730400D01*
X121929229Y-79757483D01*
X121902146Y-79779709D01*
X121871239Y-79796229D01*
X121837708Y-79806401D01*
X121796699Y-79810440D01*
X120767673Y-79810440D01*
X120726664Y-79806401D01*
X120693133Y-79796229D01*
X120662226Y-79779709D01*
X120635143Y-79757483D01*
X120612917Y-79730400D01*
X120596397Y-79699493D01*
X120586225Y-79665962D01*
X120582186Y-79624953D01*
X120582186Y-78845927D01*
X120586225Y-78804918D01*
X120596397Y-78771387D01*
X120612917Y-78740480D01*
X120635143Y-78713397D01*
X120662226Y-78691171D01*
X120693133Y-78674651D01*
X120726664Y-78664479D01*
X120767673Y-78660440D01*
X121796699Y-78660440D01*
X121837708Y-78664479D01*
X121837708Y-78664479D01*
G37*
G36*
X81405522Y-77304039D02*
X81439053Y-77314211D01*
X81469960Y-77330731D01*
X81497043Y-77352957D01*
X81519269Y-77380040D01*
X81535789Y-77410947D01*
X81545961Y-77444478D01*
X81550000Y-77485487D01*
X81550000Y-78514513D01*
X81545961Y-78555522D01*
X81535789Y-78589053D01*
X81519269Y-78619960D01*
X81497043Y-78647043D01*
X81469960Y-78669269D01*
X81439053Y-78685789D01*
X81405522Y-78695961D01*
X81364513Y-78700000D01*
X80585487Y-78700000D01*
X80544478Y-78695961D01*
X80510947Y-78685789D01*
X80480040Y-78669269D01*
X80452957Y-78647043D01*
X80430731Y-78619960D01*
X80414211Y-78589053D01*
X80404039Y-78555522D01*
X80400000Y-78514513D01*
X80400000Y-77485487D01*
X80404039Y-77444478D01*
X80414211Y-77410947D01*
X80430731Y-77380040D01*
X80452957Y-77352957D01*
X80480040Y-77330731D01*
X80510947Y-77314211D01*
X80544478Y-77304039D01*
X80585487Y-77300000D01*
X81364513Y-77300000D01*
X81405522Y-77304039D01*
X81405522Y-77304039D01*
G37*
G36*
X92180522Y-77304039D02*
X92214053Y-77314211D01*
X92244960Y-77330731D01*
X92272043Y-77352957D01*
X92294269Y-77380040D01*
X92310789Y-77410947D01*
X92320961Y-77444478D01*
X92325000Y-77485487D01*
X92325000Y-78514513D01*
X92320961Y-78555522D01*
X92310789Y-78589053D01*
X92294269Y-78619960D01*
X92272043Y-78647043D01*
X92244960Y-78669269D01*
X92214053Y-78685789D01*
X92180522Y-78695961D01*
X92139513Y-78700000D01*
X91360487Y-78700000D01*
X91319478Y-78695961D01*
X91285947Y-78685789D01*
X91255040Y-78669269D01*
X91227957Y-78647043D01*
X91205731Y-78619960D01*
X91189211Y-78589053D01*
X91179039Y-78555522D01*
X91175000Y-78514513D01*
X91175000Y-77485487D01*
X91179039Y-77444478D01*
X91189211Y-77410947D01*
X91205731Y-77380040D01*
X91227957Y-77352957D01*
X91255040Y-77330731D01*
X91285947Y-77314211D01*
X91319478Y-77304039D01*
X91360487Y-77300000D01*
X92139513Y-77300000D01*
X92180522Y-77304039D01*
X92180522Y-77304039D01*
G37*
G36*
X90130522Y-77304039D02*
X90164053Y-77314211D01*
X90194960Y-77330731D01*
X90222043Y-77352957D01*
X90244269Y-77380040D01*
X90260789Y-77410947D01*
X90270961Y-77444478D01*
X90275000Y-77485487D01*
X90275000Y-78514513D01*
X90270961Y-78555522D01*
X90260789Y-78589053D01*
X90244269Y-78619960D01*
X90222043Y-78647043D01*
X90194960Y-78669269D01*
X90164053Y-78685789D01*
X90130522Y-78695961D01*
X90089513Y-78700000D01*
X89310487Y-78700000D01*
X89269478Y-78695961D01*
X89235947Y-78685789D01*
X89205040Y-78669269D01*
X89177957Y-78647043D01*
X89155731Y-78619960D01*
X89139211Y-78589053D01*
X89129039Y-78555522D01*
X89125000Y-78514513D01*
X89125000Y-77485487D01*
X89129039Y-77444478D01*
X89139211Y-77410947D01*
X89155731Y-77380040D01*
X89177957Y-77352957D01*
X89205040Y-77330731D01*
X89235947Y-77314211D01*
X89269478Y-77304039D01*
X89310487Y-77300000D01*
X90089513Y-77300000D01*
X90130522Y-77304039D01*
X90130522Y-77304039D01*
G37*
G36*
X83455522Y-77304039D02*
X83489053Y-77314211D01*
X83519960Y-77330731D01*
X83547043Y-77352957D01*
X83569269Y-77380040D01*
X83585789Y-77410947D01*
X83595961Y-77444478D01*
X83600000Y-77485487D01*
X83600000Y-78514513D01*
X83595961Y-78555522D01*
X83585789Y-78589053D01*
X83569269Y-78619960D01*
X83547043Y-78647043D01*
X83519960Y-78669269D01*
X83489053Y-78685789D01*
X83455522Y-78695961D01*
X83414513Y-78700000D01*
X82635487Y-78700000D01*
X82594478Y-78695961D01*
X82560947Y-78685789D01*
X82530040Y-78669269D01*
X82502957Y-78647043D01*
X82480731Y-78619960D01*
X82464211Y-78589053D01*
X82454039Y-78555522D01*
X82450000Y-78514513D01*
X82450000Y-77485487D01*
X82454039Y-77444478D01*
X82464211Y-77410947D01*
X82480731Y-77380040D01*
X82502957Y-77352957D01*
X82530040Y-77330731D01*
X82560947Y-77314211D01*
X82594478Y-77304039D01*
X82635487Y-77300000D01*
X83414513Y-77300000D01*
X83455522Y-77304039D01*
X83455522Y-77304039D01*
G37*
G36*
X73430522Y-77054039D02*
X73464053Y-77064211D01*
X73494960Y-77080731D01*
X73522043Y-77102957D01*
X73544269Y-77130040D01*
X73560789Y-77160947D01*
X73570961Y-77194478D01*
X73575000Y-77235487D01*
X73575000Y-78264513D01*
X73570961Y-78305522D01*
X73560789Y-78339053D01*
X73544269Y-78369960D01*
X73522043Y-78397043D01*
X73494960Y-78419269D01*
X73464053Y-78435789D01*
X73430522Y-78445961D01*
X73389513Y-78450000D01*
X72610487Y-78450000D01*
X72569478Y-78445961D01*
X72535947Y-78435789D01*
X72505040Y-78419269D01*
X72477957Y-78397043D01*
X72455731Y-78369960D01*
X72439211Y-78339053D01*
X72429039Y-78305522D01*
X72425000Y-78264513D01*
X72425000Y-77235487D01*
X72429039Y-77194478D01*
X72439211Y-77160947D01*
X72455731Y-77130040D01*
X72477957Y-77102957D01*
X72505040Y-77080731D01*
X72535947Y-77064211D01*
X72569478Y-77054039D01*
X72610487Y-77050000D01*
X73389513Y-77050000D01*
X73430522Y-77054039D01*
X73430522Y-77054039D01*
G37*
G36*
X75480522Y-77054039D02*
X75514053Y-77064211D01*
X75544960Y-77080731D01*
X75572043Y-77102957D01*
X75594269Y-77130040D01*
X75610789Y-77160947D01*
X75620961Y-77194478D01*
X75625000Y-77235487D01*
X75625000Y-78264513D01*
X75620961Y-78305522D01*
X75610789Y-78339053D01*
X75594269Y-78369960D01*
X75572043Y-78397043D01*
X75544960Y-78419269D01*
X75514053Y-78435789D01*
X75480522Y-78445961D01*
X75439513Y-78450000D01*
X74660487Y-78450000D01*
X74619478Y-78445961D01*
X74585947Y-78435789D01*
X74555040Y-78419269D01*
X74527957Y-78397043D01*
X74505731Y-78369960D01*
X74489211Y-78339053D01*
X74479039Y-78305522D01*
X74475000Y-78264513D01*
X74475000Y-77235487D01*
X74479039Y-77194478D01*
X74489211Y-77160947D01*
X74505731Y-77130040D01*
X74527957Y-77102957D01*
X74555040Y-77080731D01*
X74585947Y-77064211D01*
X74619478Y-77054039D01*
X74660487Y-77050000D01*
X75439513Y-77050000D01*
X75480522Y-77054039D01*
X75480522Y-77054039D01*
G37*
G36*
X75484512Y-73452034D02*
X75498471Y-73456268D01*
X75511333Y-73463143D01*
X75522605Y-73472395D01*
X75531857Y-73483667D01*
X75538732Y-73496529D01*
X75542966Y-73510488D01*
X75545000Y-73531140D01*
X75545000Y-74968860D01*
X75542966Y-74989512D01*
X75538732Y-75003471D01*
X75531857Y-75016333D01*
X75522605Y-75027605D01*
X75511333Y-75036857D01*
X75498471Y-75043732D01*
X75484512Y-75047966D01*
X75463860Y-75050000D01*
X75076140Y-75050000D01*
X75055488Y-75047966D01*
X75041529Y-75043732D01*
X75028667Y-75036857D01*
X75017395Y-75027605D01*
X75008143Y-75016333D01*
X75001268Y-75003471D01*
X74997034Y-74989512D01*
X74995000Y-74968860D01*
X74995000Y-73531140D01*
X74997034Y-73510488D01*
X75001268Y-73496529D01*
X75008143Y-73483667D01*
X75017395Y-73472395D01*
X75028667Y-73463143D01*
X75041529Y-73456268D01*
X75055488Y-73452034D01*
X75076140Y-73450000D01*
X75463860Y-73450000D01*
X75484512Y-73452034D01*
X75484512Y-73452034D01*
G37*
G36*
X80944512Y-73452034D02*
X80958471Y-73456268D01*
X80971333Y-73463143D01*
X80982605Y-73472395D01*
X80991857Y-73483667D01*
X80998732Y-73496529D01*
X81002966Y-73510488D01*
X81005000Y-73531140D01*
X81005000Y-74968860D01*
X81002966Y-74989512D01*
X80998732Y-75003471D01*
X80991857Y-75016333D01*
X80982605Y-75027605D01*
X80971333Y-75036857D01*
X80958471Y-75043732D01*
X80944512Y-75047966D01*
X80923860Y-75050000D01*
X80536140Y-75050000D01*
X80515488Y-75047966D01*
X80501529Y-75043732D01*
X80488667Y-75036857D01*
X80477395Y-75027605D01*
X80468143Y-75016333D01*
X80461268Y-75003471D01*
X80457034Y-74989512D01*
X80455000Y-74968860D01*
X80455000Y-73531140D01*
X80457034Y-73510488D01*
X80461268Y-73496529D01*
X80468143Y-73483667D01*
X80477395Y-73472395D01*
X80488667Y-73463143D01*
X80501529Y-73456268D01*
X80515488Y-73452034D01*
X80536140Y-73450000D01*
X80923860Y-73450000D01*
X80944512Y-73452034D01*
X80944512Y-73452034D01*
G37*
G36*
X89444512Y-73452034D02*
X89458471Y-73456268D01*
X89471333Y-73463143D01*
X89482605Y-73472395D01*
X89491857Y-73483667D01*
X89498732Y-73496529D01*
X89502966Y-73510488D01*
X89505000Y-73531140D01*
X89505000Y-74968860D01*
X89502966Y-74989512D01*
X89498732Y-75003471D01*
X89491857Y-75016333D01*
X89482605Y-75027605D01*
X89471333Y-75036857D01*
X89458471Y-75043732D01*
X89444512Y-75047966D01*
X89423860Y-75050000D01*
X89036140Y-75050000D01*
X89015488Y-75047966D01*
X89001529Y-75043732D01*
X88988667Y-75036857D01*
X88977395Y-75027605D01*
X88968143Y-75016333D01*
X88961268Y-75003471D01*
X88957034Y-74989512D01*
X88955000Y-74968860D01*
X88955000Y-73531140D01*
X88957034Y-73510488D01*
X88961268Y-73496529D01*
X88968143Y-73483667D01*
X88977395Y-73472395D01*
X88988667Y-73463143D01*
X89001529Y-73456268D01*
X89015488Y-73452034D01*
X89036140Y-73450000D01*
X89423860Y-73450000D01*
X89444512Y-73452034D01*
X89444512Y-73452034D01*
G37*
G36*
X91984512Y-73452034D02*
X91998471Y-73456268D01*
X92011333Y-73463143D01*
X92022605Y-73472395D01*
X92031857Y-73483667D01*
X92038732Y-73496529D01*
X92042966Y-73510488D01*
X92045000Y-73531140D01*
X92045000Y-74968860D01*
X92042966Y-74989512D01*
X92038732Y-75003471D01*
X92031857Y-75016333D01*
X92022605Y-75027605D01*
X92011333Y-75036857D01*
X91998471Y-75043732D01*
X91984512Y-75047966D01*
X91963860Y-75050000D01*
X91576140Y-75050000D01*
X91555488Y-75047966D01*
X91541529Y-75043732D01*
X91528667Y-75036857D01*
X91517395Y-75027605D01*
X91508143Y-75016333D01*
X91501268Y-75003471D01*
X91497034Y-74989512D01*
X91495000Y-74968860D01*
X91495000Y-73531140D01*
X91497034Y-73510488D01*
X91501268Y-73496529D01*
X91508143Y-73483667D01*
X91517395Y-73472395D01*
X91528667Y-73463143D01*
X91541529Y-73456268D01*
X91555488Y-73452034D01*
X91576140Y-73450000D01*
X91963860Y-73450000D01*
X91984512Y-73452034D01*
X91984512Y-73452034D01*
G37*
G36*
X72944512Y-73452034D02*
X72958471Y-73456268D01*
X72971333Y-73463143D01*
X72982605Y-73472395D01*
X72991857Y-73483667D01*
X72998732Y-73496529D01*
X73002966Y-73510488D01*
X73005000Y-73531140D01*
X73005000Y-74968860D01*
X73002966Y-74989512D01*
X72998732Y-75003471D01*
X72991857Y-75016333D01*
X72982605Y-75027605D01*
X72971333Y-75036857D01*
X72958471Y-75043732D01*
X72944512Y-75047966D01*
X72923860Y-75050000D01*
X72536140Y-75050000D01*
X72515488Y-75047966D01*
X72501529Y-75043732D01*
X72488667Y-75036857D01*
X72477395Y-75027605D01*
X72468143Y-75016333D01*
X72461268Y-75003471D01*
X72457034Y-74989512D01*
X72455000Y-74968860D01*
X72455000Y-73531140D01*
X72457034Y-73510488D01*
X72461268Y-73496529D01*
X72468143Y-73483667D01*
X72477395Y-73472395D01*
X72488667Y-73463143D01*
X72501529Y-73456268D01*
X72515488Y-73452034D01*
X72536140Y-73450000D01*
X72923860Y-73450000D01*
X72944512Y-73452034D01*
X72944512Y-73452034D01*
G37*
G36*
X83484512Y-73452034D02*
X83498471Y-73456268D01*
X83511333Y-73463143D01*
X83522605Y-73472395D01*
X83531857Y-73483667D01*
X83538732Y-73496529D01*
X83542966Y-73510488D01*
X83545000Y-73531140D01*
X83545000Y-74968860D01*
X83542966Y-74989512D01*
X83538732Y-75003471D01*
X83531857Y-75016333D01*
X83522605Y-75027605D01*
X83511333Y-75036857D01*
X83498471Y-75043732D01*
X83484512Y-75047966D01*
X83463860Y-75050000D01*
X83076140Y-75050000D01*
X83055488Y-75047966D01*
X83041529Y-75043732D01*
X83028667Y-75036857D01*
X83017395Y-75027605D01*
X83008143Y-75016333D01*
X83001268Y-75003471D01*
X82997034Y-74989512D01*
X82995000Y-74968860D01*
X82995000Y-73531140D01*
X82997034Y-73510488D01*
X83001268Y-73496529D01*
X83008143Y-73483667D01*
X83017395Y-73472395D01*
X83028667Y-73463143D01*
X83041529Y-73456268D01*
X83055488Y-73452034D01*
X83076140Y-73450000D01*
X83463860Y-73450000D01*
X83484512Y-73452034D01*
X83484512Y-73452034D01*
G37*
G36*
X87055522Y-73179039D02*
X87089053Y-73189211D01*
X87119960Y-73205731D01*
X87147043Y-73227957D01*
X87169269Y-73255040D01*
X87185789Y-73285947D01*
X87195961Y-73319478D01*
X87200000Y-73360487D01*
X87200000Y-74139513D01*
X87195961Y-74180522D01*
X87185789Y-74214053D01*
X87169269Y-74244960D01*
X87147043Y-74272043D01*
X87119960Y-74294269D01*
X87089053Y-74310789D01*
X87055522Y-74320961D01*
X87014513Y-74325000D01*
X85985487Y-74325000D01*
X85944478Y-74320961D01*
X85910947Y-74310789D01*
X85880040Y-74294269D01*
X85852957Y-74272043D01*
X85830731Y-74244960D01*
X85814211Y-74214053D01*
X85804039Y-74180522D01*
X85800000Y-74139513D01*
X85800000Y-73360487D01*
X85804039Y-73319478D01*
X85814211Y-73285947D01*
X85830731Y-73255040D01*
X85852957Y-73227957D01*
X85880040Y-73205731D01*
X85910947Y-73189211D01*
X85944478Y-73179039D01*
X85985487Y-73175000D01*
X87014513Y-73175000D01*
X87055522Y-73179039D01*
X87055522Y-73179039D01*
G37*
G36*
X111190000Y-74150000D02*
X107390000Y-74150000D01*
X107390000Y-72150000D01*
X111190000Y-72150000D01*
X111190000Y-74150000D01*
X111190000Y-74150000D01*
G37*
G36*
X122620000Y-74150000D02*
X118820000Y-74150000D01*
X118820000Y-72150000D01*
X122620000Y-72150000D01*
X122620000Y-74150000D01*
X122620000Y-74150000D01*
G37*
G36*
X134050000Y-74150000D02*
X130250000Y-74150000D01*
X130250000Y-72150000D01*
X134050000Y-72150000D01*
X134050000Y-74150000D01*
X134050000Y-74150000D01*
G37*
G36*
X101030000Y-74150000D02*
X97230000Y-74150000D01*
X97230000Y-72150000D01*
X101030000Y-72150000D01*
X101030000Y-74150000D01*
X101030000Y-74150000D01*
G37*
G36*
X78555522Y-72429039D02*
X78589053Y-72439211D01*
X78619960Y-72455731D01*
X78647043Y-72477957D01*
X78669269Y-72505040D01*
X78685789Y-72535947D01*
X78695961Y-72569478D01*
X78700000Y-72610487D01*
X78700000Y-73389513D01*
X78695961Y-73430522D01*
X78685789Y-73464053D01*
X78669269Y-73494960D01*
X78647043Y-73522043D01*
X78619960Y-73544269D01*
X78589053Y-73560789D01*
X78555522Y-73570961D01*
X78514513Y-73575000D01*
X77485487Y-73575000D01*
X77444478Y-73570961D01*
X77410947Y-73560789D01*
X77380040Y-73544269D01*
X77352957Y-73522043D01*
X77330731Y-73494960D01*
X77314211Y-73464053D01*
X77304039Y-73430522D01*
X77300000Y-73389513D01*
X77300000Y-72610487D01*
X77304039Y-72569478D01*
X77314211Y-72535947D01*
X77330731Y-72505040D01*
X77352957Y-72477957D01*
X77380040Y-72455731D01*
X77410947Y-72439211D01*
X77444478Y-72429039D01*
X77485487Y-72425000D01*
X78514513Y-72425000D01*
X78555522Y-72429039D01*
X78555522Y-72429039D01*
G37*
G36*
X87055522Y-71129039D02*
X87089053Y-71139211D01*
X87119960Y-71155731D01*
X87147043Y-71177957D01*
X87169269Y-71205040D01*
X87185789Y-71235947D01*
X87195961Y-71269478D01*
X87200000Y-71310487D01*
X87200000Y-72089513D01*
X87195961Y-72130522D01*
X87185789Y-72164053D01*
X87169269Y-72194960D01*
X87147043Y-72222043D01*
X87119960Y-72244269D01*
X87089053Y-72260789D01*
X87055522Y-72270961D01*
X87014513Y-72275000D01*
X85985487Y-72275000D01*
X85944478Y-72270961D01*
X85910947Y-72260789D01*
X85880040Y-72244269D01*
X85852957Y-72222043D01*
X85830731Y-72194960D01*
X85814211Y-72164053D01*
X85804039Y-72130522D01*
X85800000Y-72089513D01*
X85800000Y-71310487D01*
X85804039Y-71269478D01*
X85814211Y-71235947D01*
X85830731Y-71205040D01*
X85852957Y-71177957D01*
X85880040Y-71155731D01*
X85910947Y-71139211D01*
X85944478Y-71129039D01*
X85985487Y-71125000D01*
X87014513Y-71125000D01*
X87055522Y-71129039D01*
X87055522Y-71129039D01*
G37*
G36*
X78555522Y-70379039D02*
X78589053Y-70389211D01*
X78619960Y-70405731D01*
X78647043Y-70427957D01*
X78669269Y-70455040D01*
X78685789Y-70485947D01*
X78695961Y-70519478D01*
X78700000Y-70560487D01*
X78700000Y-71339513D01*
X78695961Y-71380522D01*
X78685789Y-71414053D01*
X78669269Y-71444960D01*
X78647043Y-71472043D01*
X78619960Y-71494269D01*
X78589053Y-71510789D01*
X78555522Y-71520961D01*
X78514513Y-71525000D01*
X77485487Y-71525000D01*
X77444478Y-71520961D01*
X77410947Y-71510789D01*
X77380040Y-71494269D01*
X77352957Y-71472043D01*
X77330731Y-71444960D01*
X77314211Y-71414053D01*
X77304039Y-71380522D01*
X77300000Y-71339513D01*
X77300000Y-70560487D01*
X77304039Y-70519478D01*
X77314211Y-70485947D01*
X77330731Y-70455040D01*
X77352957Y-70427957D01*
X77380040Y-70405731D01*
X77410947Y-70389211D01*
X77444478Y-70379039D01*
X77485487Y-70375000D01*
X78514513Y-70375000D01*
X78555522Y-70379039D01*
X78555522Y-70379039D01*
G37*
G36*
X78555522Y-67479039D02*
X78589053Y-67489211D01*
X78619960Y-67505731D01*
X78647043Y-67527957D01*
X78669269Y-67555040D01*
X78685789Y-67585947D01*
X78695961Y-67619478D01*
X78700000Y-67660487D01*
X78700000Y-68439513D01*
X78695961Y-68480522D01*
X78685789Y-68514053D01*
X78669269Y-68544960D01*
X78647043Y-68572043D01*
X78619960Y-68594269D01*
X78589053Y-68610789D01*
X78555522Y-68620961D01*
X78514513Y-68625000D01*
X77485487Y-68625000D01*
X77444478Y-68620961D01*
X77410947Y-68610789D01*
X77380040Y-68594269D01*
X77352957Y-68572043D01*
X77330731Y-68544960D01*
X77314211Y-68514053D01*
X77304039Y-68480522D01*
X77300000Y-68439513D01*
X77300000Y-67660487D01*
X77304039Y-67619478D01*
X77314211Y-67585947D01*
X77330731Y-67555040D01*
X77352957Y-67527957D01*
X77380040Y-67505731D01*
X77410947Y-67489211D01*
X77444478Y-67479039D01*
X77485487Y-67475000D01*
X78514513Y-67475000D01*
X78555522Y-67479039D01*
X78555522Y-67479039D01*
G37*
G36*
X83484512Y-66952034D02*
X83498471Y-66956268D01*
X83511333Y-66963143D01*
X83522605Y-66972395D01*
X83531857Y-66983667D01*
X83538732Y-66996529D01*
X83542966Y-67010488D01*
X83545000Y-67031140D01*
X83545000Y-68468860D01*
X83542966Y-68489512D01*
X83538732Y-68503471D01*
X83531857Y-68516333D01*
X83522605Y-68527605D01*
X83511333Y-68536857D01*
X83498471Y-68543732D01*
X83484512Y-68547966D01*
X83463860Y-68550000D01*
X83076140Y-68550000D01*
X83055488Y-68547966D01*
X83041529Y-68543732D01*
X83028667Y-68536857D01*
X83017395Y-68527605D01*
X83008143Y-68516333D01*
X83001268Y-68503471D01*
X82997034Y-68489512D01*
X82995000Y-68468860D01*
X82995000Y-67031140D01*
X82997034Y-67010488D01*
X83001268Y-66996529D01*
X83008143Y-66983667D01*
X83017395Y-66972395D01*
X83028667Y-66963143D01*
X83041529Y-66956268D01*
X83055488Y-66952034D01*
X83076140Y-66950000D01*
X83463860Y-66950000D01*
X83484512Y-66952034D01*
X83484512Y-66952034D01*
G37*
G36*
X91984512Y-66952034D02*
X91998471Y-66956268D01*
X92011333Y-66963143D01*
X92022605Y-66972395D01*
X92031857Y-66983667D01*
X92038732Y-66996529D01*
X92042966Y-67010488D01*
X92045000Y-67031140D01*
X92045000Y-68468860D01*
X92042966Y-68489512D01*
X92038732Y-68503471D01*
X92031857Y-68516333D01*
X92022605Y-68527605D01*
X92011333Y-68536857D01*
X91998471Y-68543732D01*
X91984512Y-68547966D01*
X91963860Y-68550000D01*
X91576140Y-68550000D01*
X91555488Y-68547966D01*
X91541529Y-68543732D01*
X91528667Y-68536857D01*
X91517395Y-68527605D01*
X91508143Y-68516333D01*
X91501268Y-68503471D01*
X91497034Y-68489512D01*
X91495000Y-68468860D01*
X91495000Y-67031140D01*
X91497034Y-67010488D01*
X91501268Y-66996529D01*
X91508143Y-66983667D01*
X91517395Y-66972395D01*
X91528667Y-66963143D01*
X91541529Y-66956268D01*
X91555488Y-66952034D01*
X91576140Y-66950000D01*
X91963860Y-66950000D01*
X91984512Y-66952034D01*
X91984512Y-66952034D01*
G37*
G36*
X89444512Y-66952034D02*
X89458471Y-66956268D01*
X89471333Y-66963143D01*
X89482605Y-66972395D01*
X89491857Y-66983667D01*
X89498732Y-66996529D01*
X89502966Y-67010488D01*
X89505000Y-67031140D01*
X89505000Y-68468860D01*
X89502966Y-68489512D01*
X89498732Y-68503471D01*
X89491857Y-68516333D01*
X89482605Y-68527605D01*
X89471333Y-68536857D01*
X89458471Y-68543732D01*
X89444512Y-68547966D01*
X89423860Y-68550000D01*
X89036140Y-68550000D01*
X89015488Y-68547966D01*
X89001529Y-68543732D01*
X88988667Y-68536857D01*
X88977395Y-68527605D01*
X88968143Y-68516333D01*
X88961268Y-68503471D01*
X88957034Y-68489512D01*
X88955000Y-68468860D01*
X88955000Y-67031140D01*
X88957034Y-67010488D01*
X88961268Y-66996529D01*
X88968143Y-66983667D01*
X88977395Y-66972395D01*
X88988667Y-66963143D01*
X89001529Y-66956268D01*
X89015488Y-66952034D01*
X89036140Y-66950000D01*
X89423860Y-66950000D01*
X89444512Y-66952034D01*
X89444512Y-66952034D01*
G37*
G36*
X80944512Y-66952034D02*
X80958471Y-66956268D01*
X80971333Y-66963143D01*
X80982605Y-66972395D01*
X80991857Y-66983667D01*
X80998732Y-66996529D01*
X81002966Y-67010488D01*
X81005000Y-67031140D01*
X81005000Y-68468860D01*
X81002966Y-68489512D01*
X80998732Y-68503471D01*
X80991857Y-68516333D01*
X80982605Y-68527605D01*
X80971333Y-68536857D01*
X80958471Y-68543732D01*
X80944512Y-68547966D01*
X80923860Y-68550000D01*
X80536140Y-68550000D01*
X80515488Y-68547966D01*
X80501529Y-68543732D01*
X80488667Y-68536857D01*
X80477395Y-68527605D01*
X80468143Y-68516333D01*
X80461268Y-68503471D01*
X80457034Y-68489512D01*
X80455000Y-68468860D01*
X80455000Y-67031140D01*
X80457034Y-67010488D01*
X80461268Y-66996529D01*
X80468143Y-66983667D01*
X80477395Y-66972395D01*
X80488667Y-66963143D01*
X80501529Y-66956268D01*
X80515488Y-66952034D01*
X80536140Y-66950000D01*
X80923860Y-66950000D01*
X80944512Y-66952034D01*
X80944512Y-66952034D01*
G37*
G36*
X75484512Y-66952034D02*
X75498471Y-66956268D01*
X75511333Y-66963143D01*
X75522605Y-66972395D01*
X75531857Y-66983667D01*
X75538732Y-66996529D01*
X75542966Y-67010488D01*
X75545000Y-67031140D01*
X75545000Y-68468860D01*
X75542966Y-68489512D01*
X75538732Y-68503471D01*
X75531857Y-68516333D01*
X75522605Y-68527605D01*
X75511333Y-68536857D01*
X75498471Y-68543732D01*
X75484512Y-68547966D01*
X75463860Y-68550000D01*
X75076140Y-68550000D01*
X75055488Y-68547966D01*
X75041529Y-68543732D01*
X75028667Y-68536857D01*
X75017395Y-68527605D01*
X75008143Y-68516333D01*
X75001268Y-68503471D01*
X74997034Y-68489512D01*
X74995000Y-68468860D01*
X74995000Y-67031140D01*
X74997034Y-67010488D01*
X75001268Y-66996529D01*
X75008143Y-66983667D01*
X75017395Y-66972395D01*
X75028667Y-66963143D01*
X75041529Y-66956268D01*
X75055488Y-66952034D01*
X75076140Y-66950000D01*
X75463860Y-66950000D01*
X75484512Y-66952034D01*
X75484512Y-66952034D01*
G37*
G36*
X72944512Y-66952034D02*
X72958471Y-66956268D01*
X72971333Y-66963143D01*
X72982605Y-66972395D01*
X72991857Y-66983667D01*
X72998732Y-66996529D01*
X73002966Y-67010488D01*
X73005000Y-67031140D01*
X73005000Y-68468860D01*
X73002966Y-68489512D01*
X72998732Y-68503471D01*
X72991857Y-68516333D01*
X72982605Y-68527605D01*
X72971333Y-68536857D01*
X72958471Y-68543732D01*
X72944512Y-68547966D01*
X72923860Y-68550000D01*
X72536140Y-68550000D01*
X72515488Y-68547966D01*
X72501529Y-68543732D01*
X72488667Y-68536857D01*
X72477395Y-68527605D01*
X72468143Y-68516333D01*
X72461268Y-68503471D01*
X72457034Y-68489512D01*
X72455000Y-68468860D01*
X72455000Y-67031140D01*
X72457034Y-67010488D01*
X72461268Y-66996529D01*
X72468143Y-66983667D01*
X72477395Y-66972395D01*
X72488667Y-66963143D01*
X72501529Y-66956268D01*
X72515488Y-66952034D01*
X72536140Y-66950000D01*
X72923860Y-66950000D01*
X72944512Y-66952034D01*
X72944512Y-66952034D01*
G37*
G36*
X110040000Y-67850000D02*
X108540000Y-67850000D01*
X108540000Y-65850000D01*
X110040000Y-65850000D01*
X110040000Y-67850000D01*
X110040000Y-67850000D01*
G37*
G36*
X99880000Y-67850000D02*
X98380000Y-67850000D01*
X98380000Y-65850000D01*
X99880000Y-65850000D01*
X99880000Y-67850000D01*
X99880000Y-67850000D01*
G37*
G36*
X112340000Y-67850000D02*
X110840000Y-67850000D01*
X110840000Y-65850000D01*
X112340000Y-65850000D01*
X112340000Y-67850000D01*
X112340000Y-67850000D01*
G37*
G36*
X107740000Y-67850000D02*
X106240000Y-67850000D01*
X106240000Y-65850000D01*
X107740000Y-65850000D01*
X107740000Y-67850000D01*
X107740000Y-67850000D01*
G37*
G36*
X123770000Y-67850000D02*
X122270000Y-67850000D01*
X122270000Y-65850000D01*
X123770000Y-65850000D01*
X123770000Y-67850000D01*
X123770000Y-67850000D01*
G37*
G36*
X119170000Y-67850000D02*
X117670000Y-67850000D01*
X117670000Y-65850000D01*
X119170000Y-65850000D01*
X119170000Y-67850000D01*
X119170000Y-67850000D01*
G37*
G36*
X135200000Y-67850000D02*
X133700000Y-67850000D01*
X133700000Y-65850000D01*
X135200000Y-65850000D01*
X135200000Y-67850000D01*
X135200000Y-67850000D01*
G37*
G36*
X130600000Y-67850000D02*
X129100000Y-67850000D01*
X129100000Y-65850000D01*
X130600000Y-65850000D01*
X130600000Y-67850000D01*
X130600000Y-67850000D01*
G37*
G36*
X132900000Y-67850000D02*
X131400000Y-67850000D01*
X131400000Y-65850000D01*
X132900000Y-65850000D01*
X132900000Y-67850000D01*
X132900000Y-67850000D01*
G37*
G36*
X102180000Y-67850000D02*
X100680000Y-67850000D01*
X100680000Y-65850000D01*
X102180000Y-65850000D01*
X102180000Y-67850000D01*
X102180000Y-67850000D01*
G37*
G36*
X97580000Y-67850000D02*
X96080000Y-67850000D01*
X96080000Y-65850000D01*
X97580000Y-65850000D01*
X97580000Y-67850000D01*
X97580000Y-67850000D01*
G37*
G36*
X121470000Y-67850000D02*
X119970000Y-67850000D01*
X119970000Y-65850000D01*
X121470000Y-65850000D01*
X121470000Y-67850000D01*
X121470000Y-67850000D01*
G37*
G36*
X78555522Y-65429039D02*
X78589053Y-65439211D01*
X78619960Y-65455731D01*
X78647043Y-65477957D01*
X78669269Y-65505040D01*
X78685789Y-65535947D01*
X78695961Y-65569478D01*
X78700000Y-65610487D01*
X78700000Y-66389513D01*
X78695961Y-66430522D01*
X78685789Y-66464053D01*
X78669269Y-66494960D01*
X78647043Y-66522043D01*
X78619960Y-66544269D01*
X78589053Y-66560789D01*
X78555522Y-66570961D01*
X78514513Y-66575000D01*
X77485487Y-66575000D01*
X77444478Y-66570961D01*
X77410947Y-66560789D01*
X77380040Y-66544269D01*
X77352957Y-66522043D01*
X77330731Y-66494960D01*
X77314211Y-66464053D01*
X77304039Y-66430522D01*
X77300000Y-66389513D01*
X77300000Y-65610487D01*
X77304039Y-65569478D01*
X77314211Y-65535947D01*
X77330731Y-65505040D01*
X77352957Y-65477957D01*
X77380040Y-65455731D01*
X77410947Y-65439211D01*
X77444478Y-65429039D01*
X77485487Y-65425000D01*
X78514513Y-65425000D01*
X78555522Y-65429039D01*
X78555522Y-65429039D01*
G37*
G36*
X75430522Y-64304039D02*
X75464053Y-64314211D01*
X75494960Y-64330731D01*
X75522043Y-64352957D01*
X75544269Y-64380040D01*
X75560789Y-64410947D01*
X75570961Y-64444478D01*
X75575000Y-64485487D01*
X75575000Y-65514513D01*
X75570961Y-65555522D01*
X75560789Y-65589053D01*
X75544269Y-65619960D01*
X75522043Y-65647043D01*
X75494960Y-65669269D01*
X75464053Y-65685789D01*
X75430522Y-65695961D01*
X75389513Y-65700000D01*
X74610487Y-65700000D01*
X74569478Y-65695961D01*
X74535947Y-65685789D01*
X74505040Y-65669269D01*
X74477957Y-65647043D01*
X74455731Y-65619960D01*
X74439211Y-65589053D01*
X74429039Y-65555522D01*
X74425000Y-65514513D01*
X74425000Y-64485487D01*
X74429039Y-64444478D01*
X74439211Y-64410947D01*
X74455731Y-64380040D01*
X74477957Y-64352957D01*
X74505040Y-64330731D01*
X74535947Y-64314211D01*
X74569478Y-64304039D01*
X74610487Y-64300000D01*
X75389513Y-64300000D01*
X75430522Y-64304039D01*
X75430522Y-64304039D01*
G37*
G36*
X73380522Y-64304039D02*
X73414053Y-64314211D01*
X73444960Y-64330731D01*
X73472043Y-64352957D01*
X73494269Y-64380040D01*
X73510789Y-64410947D01*
X73520961Y-64444478D01*
X73525000Y-64485487D01*
X73525000Y-65514513D01*
X73520961Y-65555522D01*
X73510789Y-65589053D01*
X73494269Y-65619960D01*
X73472043Y-65647043D01*
X73444960Y-65669269D01*
X73414053Y-65685789D01*
X73380522Y-65695961D01*
X73339513Y-65700000D01*
X72560487Y-65700000D01*
X72519478Y-65695961D01*
X72485947Y-65685789D01*
X72455040Y-65669269D01*
X72427957Y-65647043D01*
X72405731Y-65619960D01*
X72389211Y-65589053D01*
X72379039Y-65555522D01*
X72375000Y-65514513D01*
X72375000Y-64485487D01*
X72379039Y-64444478D01*
X72389211Y-64410947D01*
X72405731Y-64380040D01*
X72427957Y-64352957D01*
X72455040Y-64330731D01*
X72485947Y-64314211D01*
X72519478Y-64304039D01*
X72560487Y-64300000D01*
X73339513Y-64300000D01*
X73380522Y-64304039D01*
X73380522Y-64304039D01*
G37*
G36*
X81405522Y-64304039D02*
X81439053Y-64314211D01*
X81469960Y-64330731D01*
X81497043Y-64352957D01*
X81519269Y-64380040D01*
X81535789Y-64410947D01*
X81545961Y-64444478D01*
X81550000Y-64485487D01*
X81550000Y-65514513D01*
X81545961Y-65555522D01*
X81535789Y-65589053D01*
X81519269Y-65619960D01*
X81497043Y-65647043D01*
X81469960Y-65669269D01*
X81439053Y-65685789D01*
X81405522Y-65695961D01*
X81364513Y-65700000D01*
X80585487Y-65700000D01*
X80544478Y-65695961D01*
X80510947Y-65685789D01*
X80480040Y-65669269D01*
X80452957Y-65647043D01*
X80430731Y-65619960D01*
X80414211Y-65589053D01*
X80404039Y-65555522D01*
X80400000Y-65514513D01*
X80400000Y-64485487D01*
X80404039Y-64444478D01*
X80414211Y-64410947D01*
X80430731Y-64380040D01*
X80452957Y-64352957D01*
X80480040Y-64330731D01*
X80510947Y-64314211D01*
X80544478Y-64304039D01*
X80585487Y-64300000D01*
X81364513Y-64300000D01*
X81405522Y-64304039D01*
X81405522Y-64304039D01*
G37*
G36*
X89905522Y-64304039D02*
X89939053Y-64314211D01*
X89969960Y-64330731D01*
X89997043Y-64352957D01*
X90019269Y-64380040D01*
X90035789Y-64410947D01*
X90045961Y-64444478D01*
X90050000Y-64485487D01*
X90050000Y-65514513D01*
X90045961Y-65555522D01*
X90035789Y-65589053D01*
X90019269Y-65619960D01*
X89997043Y-65647043D01*
X89969960Y-65669269D01*
X89939053Y-65685789D01*
X89905522Y-65695961D01*
X89864513Y-65700000D01*
X89085487Y-65700000D01*
X89044478Y-65695961D01*
X89010947Y-65685789D01*
X88980040Y-65669269D01*
X88952957Y-65647043D01*
X88930731Y-65619960D01*
X88914211Y-65589053D01*
X88904039Y-65555522D01*
X88900000Y-65514513D01*
X88900000Y-64485487D01*
X88904039Y-64444478D01*
X88914211Y-64410947D01*
X88930731Y-64380040D01*
X88952957Y-64352957D01*
X88980040Y-64330731D01*
X89010947Y-64314211D01*
X89044478Y-64304039D01*
X89085487Y-64300000D01*
X89864513Y-64300000D01*
X89905522Y-64304039D01*
X89905522Y-64304039D01*
G37*
G36*
X91955522Y-64304039D02*
X91989053Y-64314211D01*
X92019960Y-64330731D01*
X92047043Y-64352957D01*
X92069269Y-64380040D01*
X92085789Y-64410947D01*
X92095961Y-64444478D01*
X92100000Y-64485487D01*
X92100000Y-65514513D01*
X92095961Y-65555522D01*
X92085789Y-65589053D01*
X92069269Y-65619960D01*
X92047043Y-65647043D01*
X92019960Y-65669269D01*
X91989053Y-65685789D01*
X91955522Y-65695961D01*
X91914513Y-65700000D01*
X91135487Y-65700000D01*
X91094478Y-65695961D01*
X91060947Y-65685789D01*
X91030040Y-65669269D01*
X91002957Y-65647043D01*
X90980731Y-65619960D01*
X90964211Y-65589053D01*
X90954039Y-65555522D01*
X90950000Y-65514513D01*
X90950000Y-64485487D01*
X90954039Y-64444478D01*
X90964211Y-64410947D01*
X90980731Y-64380040D01*
X91002957Y-64352957D01*
X91030040Y-64330731D01*
X91060947Y-64314211D01*
X91094478Y-64304039D01*
X91135487Y-64300000D01*
X91914513Y-64300000D01*
X91955522Y-64304039D01*
X91955522Y-64304039D01*
G37*
G36*
X83455522Y-64304039D02*
X83489053Y-64314211D01*
X83519960Y-64330731D01*
X83547043Y-64352957D01*
X83569269Y-64380040D01*
X83585789Y-64410947D01*
X83595961Y-64444478D01*
X83600000Y-64485487D01*
X83600000Y-65514513D01*
X83595961Y-65555522D01*
X83585789Y-65589053D01*
X83569269Y-65619960D01*
X83547043Y-65647043D01*
X83519960Y-65669269D01*
X83489053Y-65685789D01*
X83455522Y-65695961D01*
X83414513Y-65700000D01*
X82635487Y-65700000D01*
X82594478Y-65695961D01*
X82560947Y-65685789D01*
X82530040Y-65669269D01*
X82502957Y-65647043D01*
X82480731Y-65619960D01*
X82464211Y-65589053D01*
X82454039Y-65555522D01*
X82450000Y-65514513D01*
X82450000Y-64485487D01*
X82454039Y-64444478D01*
X82464211Y-64410947D01*
X82480731Y-64380040D01*
X82502957Y-64352957D01*
X82530040Y-64330731D01*
X82560947Y-64314211D01*
X82594478Y-64304039D01*
X82635487Y-64300000D01*
X83414513Y-64300000D01*
X83455522Y-64304039D01*
X83455522Y-64304039D01*
G37*
G36*
X79500000Y-61000000D02*
X76500000Y-61000000D01*
X76500000Y-58000000D01*
X79500000Y-58000000D01*
X79500000Y-61000000D01*
X79500000Y-61000000D01*
G37*
G36*
X108920935Y-58038429D02*
X109017534Y-58057644D01*
X109290517Y-58170717D01*
X109532920Y-58332687D01*
X109536197Y-58334876D01*
X109745124Y-58543803D01*
X109909284Y-58789485D01*
X110022356Y-59062467D01*
X110080000Y-59352261D01*
X110080000Y-59647739D01*
X110022356Y-59937533D01*
X109909284Y-60210515D01*
X109745124Y-60456197D01*
X109536197Y-60665124D01*
X109536194Y-60665126D01*
X109290517Y-60829283D01*
X109017534Y-60942356D01*
X108920935Y-60961571D01*
X108727739Y-61000000D01*
X108432261Y-61000000D01*
X108239065Y-60961571D01*
X108142466Y-60942356D01*
X107869483Y-60829283D01*
X107623806Y-60665126D01*
X107623803Y-60665124D01*
X107414876Y-60456197D01*
X107250716Y-60210515D01*
X107137644Y-59937533D01*
X107080000Y-59647739D01*
X107080000Y-59352261D01*
X107137644Y-59062467D01*
X107250716Y-58789485D01*
X107414876Y-58543803D01*
X107623803Y-58334876D01*
X107627080Y-58332687D01*
X107869483Y-58170717D01*
X108142466Y-58057644D01*
X108239065Y-58038429D01*
X108432261Y-58000000D01*
X108727739Y-58000000D01*
X108920935Y-58038429D01*
X108920935Y-58038429D01*
G37*
G36*
X114000935Y-58038429D02*
X114097534Y-58057644D01*
X114370517Y-58170717D01*
X114612920Y-58332687D01*
X114616197Y-58334876D01*
X114825124Y-58543803D01*
X114989284Y-58789485D01*
X115102356Y-59062467D01*
X115160000Y-59352261D01*
X115160000Y-59647739D01*
X115102356Y-59937533D01*
X114989284Y-60210515D01*
X114825124Y-60456197D01*
X114616197Y-60665124D01*
X114616194Y-60665126D01*
X114370517Y-60829283D01*
X114097534Y-60942356D01*
X114000935Y-60961571D01*
X113807739Y-61000000D01*
X113512261Y-61000000D01*
X113319065Y-60961571D01*
X113222466Y-60942356D01*
X112949483Y-60829283D01*
X112703806Y-60665126D01*
X112703803Y-60665124D01*
X112494876Y-60456197D01*
X112330716Y-60210515D01*
X112217644Y-59937533D01*
X112160000Y-59647739D01*
X112160000Y-59352261D01*
X112217644Y-59062467D01*
X112330716Y-58789485D01*
X112494876Y-58543803D01*
X112703803Y-58334876D01*
X112707080Y-58332687D01*
X112949483Y-58170717D01*
X113222466Y-58057644D01*
X113319065Y-58038429D01*
X113512261Y-58000000D01*
X113807739Y-58000000D01*
X114000935Y-58038429D01*
X114000935Y-58038429D01*
G37*
G36*
X105000000Y-61000000D02*
X102000000Y-61000000D01*
X102000000Y-58000000D01*
X105000000Y-58000000D01*
X105000000Y-61000000D01*
X105000000Y-61000000D01*
G37*
G36*
X119080935Y-58038429D02*
X119177534Y-58057644D01*
X119450517Y-58170717D01*
X119692920Y-58332687D01*
X119696197Y-58334876D01*
X119905124Y-58543803D01*
X120069284Y-58789485D01*
X120182356Y-59062467D01*
X120240000Y-59352261D01*
X120240000Y-59647739D01*
X120182356Y-59937533D01*
X120069284Y-60210515D01*
X119905124Y-60456197D01*
X119696197Y-60665124D01*
X119696194Y-60665126D01*
X119450517Y-60829283D01*
X119177534Y-60942356D01*
X119080935Y-60961571D01*
X118887739Y-61000000D01*
X118592261Y-61000000D01*
X118399065Y-60961571D01*
X118302466Y-60942356D01*
X118029483Y-60829283D01*
X117783806Y-60665126D01*
X117783803Y-60665124D01*
X117574876Y-60456197D01*
X117410716Y-60210515D01*
X117297644Y-59937533D01*
X117240000Y-59647739D01*
X117240000Y-59352261D01*
X117297644Y-59062467D01*
X117410716Y-58789485D01*
X117574876Y-58543803D01*
X117783803Y-58334876D01*
X117787080Y-58332687D01*
X118029483Y-58170717D01*
X118302466Y-58057644D01*
X118399065Y-58038429D01*
X118592261Y-58000000D01*
X118887739Y-58000000D01*
X119080935Y-58038429D01*
X119080935Y-58038429D01*
G37*
G36*
X124160935Y-58038429D02*
X124257534Y-58057644D01*
X124530517Y-58170717D01*
X124772920Y-58332687D01*
X124776197Y-58334876D01*
X124985124Y-58543803D01*
X125149284Y-58789485D01*
X125262356Y-59062467D01*
X125320000Y-59352261D01*
X125320000Y-59647739D01*
X125262356Y-59937533D01*
X125149284Y-60210515D01*
X124985124Y-60456197D01*
X124776197Y-60665124D01*
X124776194Y-60665126D01*
X124530517Y-60829283D01*
X124257534Y-60942356D01*
X124160935Y-60961571D01*
X123967739Y-61000000D01*
X123672261Y-61000000D01*
X123479065Y-60961571D01*
X123382466Y-60942356D01*
X123109483Y-60829283D01*
X122863806Y-60665126D01*
X122863803Y-60665124D01*
X122654876Y-60456197D01*
X122490716Y-60210515D01*
X122377644Y-59937533D01*
X122320000Y-59647739D01*
X122320000Y-59352261D01*
X122377644Y-59062467D01*
X122490716Y-58789485D01*
X122654876Y-58543803D01*
X122863803Y-58334876D01*
X122867080Y-58332687D01*
X123109483Y-58170717D01*
X123382466Y-58057644D01*
X123479065Y-58038429D01*
X123672261Y-58000000D01*
X123967739Y-58000000D01*
X124160935Y-58038429D01*
X124160935Y-58038429D01*
G37*
G36*
X129240935Y-58038429D02*
X129337534Y-58057644D01*
X129610517Y-58170717D01*
X129852920Y-58332687D01*
X129856197Y-58334876D01*
X130065124Y-58543803D01*
X130229284Y-58789485D01*
X130342356Y-59062467D01*
X130400000Y-59352261D01*
X130400000Y-59647739D01*
X130342356Y-59937533D01*
X130229284Y-60210515D01*
X130065124Y-60456197D01*
X129856197Y-60665124D01*
X129856194Y-60665126D01*
X129610517Y-60829283D01*
X129337534Y-60942356D01*
X129240935Y-60961571D01*
X129047739Y-61000000D01*
X128752261Y-61000000D01*
X128559065Y-60961571D01*
X128462466Y-60942356D01*
X128189483Y-60829283D01*
X127943806Y-60665126D01*
X127943803Y-60665124D01*
X127734876Y-60456197D01*
X127570716Y-60210515D01*
X127457644Y-59937533D01*
X127400000Y-59647739D01*
X127400000Y-59352261D01*
X127457644Y-59062467D01*
X127570716Y-58789485D01*
X127734876Y-58543803D01*
X127943803Y-58334876D01*
X127947080Y-58332687D01*
X128189483Y-58170717D01*
X128462466Y-58057644D01*
X128559065Y-58038429D01*
X128752261Y-58000000D01*
X129047739Y-58000000D01*
X129240935Y-58038429D01*
X129240935Y-58038429D01*
G37*
G36*
X83420935Y-58038429D02*
X83517534Y-58057644D01*
X83790517Y-58170717D01*
X84032920Y-58332687D01*
X84036197Y-58334876D01*
X84245124Y-58543803D01*
X84409284Y-58789485D01*
X84522356Y-59062467D01*
X84580000Y-59352261D01*
X84580000Y-59647739D01*
X84522356Y-59937533D01*
X84409284Y-60210515D01*
X84245124Y-60456197D01*
X84036197Y-60665124D01*
X84036194Y-60665126D01*
X83790517Y-60829283D01*
X83517534Y-60942356D01*
X83420935Y-60961571D01*
X83227739Y-61000000D01*
X82932261Y-61000000D01*
X82739065Y-60961571D01*
X82642466Y-60942356D01*
X82369483Y-60829283D01*
X82123806Y-60665126D01*
X82123803Y-60665124D01*
X81914876Y-60456197D01*
X81750716Y-60210515D01*
X81637644Y-59937533D01*
X81580000Y-59647739D01*
X81580000Y-59352261D01*
X81637644Y-59062467D01*
X81750716Y-58789485D01*
X81914876Y-58543803D01*
X82123803Y-58334876D01*
X82127080Y-58332687D01*
X82369483Y-58170717D01*
X82642466Y-58057644D01*
X82739065Y-58038429D01*
X82932261Y-58000000D01*
X83227739Y-58000000D01*
X83420935Y-58038429D01*
X83420935Y-58038429D01*
G37*
G36*
X88500935Y-58038429D02*
X88597534Y-58057644D01*
X88870517Y-58170717D01*
X89112920Y-58332687D01*
X89116197Y-58334876D01*
X89325124Y-58543803D01*
X89489284Y-58789485D01*
X89602356Y-59062467D01*
X89660000Y-59352261D01*
X89660000Y-59647739D01*
X89602356Y-59937533D01*
X89489284Y-60210515D01*
X89325124Y-60456197D01*
X89116197Y-60665124D01*
X89116194Y-60665126D01*
X88870517Y-60829283D01*
X88597534Y-60942356D01*
X88500935Y-60961571D01*
X88307739Y-61000000D01*
X88012261Y-61000000D01*
X87819065Y-60961571D01*
X87722466Y-60942356D01*
X87449483Y-60829283D01*
X87203806Y-60665126D01*
X87203803Y-60665124D01*
X86994876Y-60456197D01*
X86830716Y-60210515D01*
X86717644Y-59937533D01*
X86660000Y-59647739D01*
X86660000Y-59352261D01*
X86717644Y-59062467D01*
X86830716Y-58789485D01*
X86994876Y-58543803D01*
X87203803Y-58334876D01*
X87207080Y-58332687D01*
X87449483Y-58170717D01*
X87722466Y-58057644D01*
X87819065Y-58038429D01*
X88012261Y-58000000D01*
X88307739Y-58000000D01*
X88500935Y-58038429D01*
X88500935Y-58038429D01*
G37*
G36*
X93580935Y-58038429D02*
X93677534Y-58057644D01*
X93950517Y-58170717D01*
X94192920Y-58332687D01*
X94196197Y-58334876D01*
X94405124Y-58543803D01*
X94569284Y-58789485D01*
X94682356Y-59062467D01*
X94740000Y-59352261D01*
X94740000Y-59647739D01*
X94682356Y-59937533D01*
X94569284Y-60210515D01*
X94405124Y-60456197D01*
X94196197Y-60665124D01*
X94196194Y-60665126D01*
X93950517Y-60829283D01*
X93677534Y-60942356D01*
X93580935Y-60961571D01*
X93387739Y-61000000D01*
X93092261Y-61000000D01*
X92899065Y-60961571D01*
X92802466Y-60942356D01*
X92529483Y-60829283D01*
X92283806Y-60665126D01*
X92283803Y-60665124D01*
X92074876Y-60456197D01*
X91910716Y-60210515D01*
X91797644Y-59937533D01*
X91740000Y-59647739D01*
X91740000Y-59352261D01*
X91797644Y-59062467D01*
X91910716Y-58789485D01*
X92074876Y-58543803D01*
X92283803Y-58334876D01*
X92287080Y-58332687D01*
X92529483Y-58170717D01*
X92802466Y-58057644D01*
X92899065Y-58038429D01*
X93092261Y-58000000D01*
X93387739Y-58000000D01*
X93580935Y-58038429D01*
X93580935Y-58038429D01*
G37*
M02*
